<svg width="83" height="56" viewBox="0 0 83 56" fill="none" xmlns="http://www.w3.org/2000/svg">
<g clip-path="url(#clip0_552_95)">
<path d="M0.390739 45.1429C1.69513 46.4518 6.04109 45.4848 11.475 42.9646C10.9881 47.1356 11.6073 49.9634 13.4767 50.5495C14.733 50.9402 16.3981 50.2662 18.2855 48.7717C18.8445 48.8889 19.4697 48.9817 20.1549 49.0501C19.3374 50.7107 19.2473 51.9952 20.0347 52.7375C21.2009 53.8413 24.1042 53.5776 28.0354 52.2442C28.8949 53.1087 29.7846 53.5678 30.6802 53.5238C31.113 53.5043 31.5338 53.3675 31.9305 53.1233C31.6961 54.5055 31.9004 55.4628 32.6097 55.8291C34.1726 56.635 37.8033 54.4665 42.0711 50.4958C44.8662 53.3578 47.3788 54.8132 49.104 54.2711C50.4384 53.8511 51.1297 52.2833 51.2319 49.9097C55.8122 53.5385 61.4446 54.8474 64.414 52.7815C66.3495 51.4335 66.6982 48.9524 65.6883 46.2223C65.7545 46.2223 65.8206 46.232 65.8867 46.232C69.6195 49.9292 72.9136 51.8486 74.8671 51.0916C76.1415 50.5983 76.6885 49.0257 76.5923 46.696C78.7382 47.0916 80.3131 46.9597 81.0945 46.2174C82.6754 44.7033 80.6557 40.9817 76.2136 36.3908C79.8863 36.845 82.3569 36.635 82.8858 35.6435C83.6192 34.2613 80.4153 31.6923 74.9212 28.884C77.9628 26.193 79.3393 23.9463 78.4136 22.6472C77.6923 21.6411 75.6846 21.3334 72.7753 21.6215C76.4721 17.3773 77.1814 12.6496 74.1999 10.5934C72.2584 9.25522 69.1927 9.35779 66.0249 10.5934C65.5621 5.19662 64.0473 1.475 61.9014 1.33337C59.8336 1.2015 57.7057 4.42494 56.203 9.36267C52.8188 6.19784 49.8674 4.61542 48.058 5.31383C46.6755 5.85107 46.1465 7.65815 46.375 10.3248C45.4372 6.76438 43.676 4.29307 41.6924 4.20028C40.1956 4.1319 38.8672 5.43593 37.9475 7.57513C37.8393 5.19173 37.142 3.62397 35.8076 3.20394C34.4852 2.79368 32.7119 3.55559 30.7043 5.21615C29.5802 3.67769 28.378 2.84252 27.1758 2.89625C24.7353 3.00858 22.8118 6.76438 21.7779 12.5422C19.65 10.066 17.7565 8.75705 16.5123 9.12824C14.7751 9.64594 14.6909 13.3089 15.9713 18.4762C11.475 18.5397 8.52363 19.2772 8.00669 20.718C7.60395 21.8364 8.71599 23.2332 10.9761 24.7424C4.64653 25.5141 -0.0540756 28.3566 0.162321 31.5263C0.306585 33.5922 2.51263 35.326 5.80065 36.337C1.31042 40.3273 -0.967749 43.79 0.390739 45.1478V45.1429ZM46.9941 13.8511C47.1083 14.3199 47.2345 14.7986 47.3788 15.2967C47.2826 15.3065 47.1925 15.3163 47.0963 15.326C47.0782 14.823 47.0422 14.3346 47.0001 13.8511H46.9941Z" fill="#116211" fill-opacity="0.8"/>
<path d="M15.7248 23.8486C23.8336 28.1807 23.7014 27.5067 16.3619 22.4469C26.4604 20.6154 25.6189 19.9365 16.1215 20.1758C22.8118 12.884 18.2314 16.0977 14.4685 18.5494C13.0379 10.4322 11.8176 12.6154 10.6695 18.2466C4.95906 14.4029 3.36014 14.3638 8.23506 20.3223C1.47268 20.5812 4.15359 21.5726 8.30118 22.6813C3.66069 25.8754 0.991799 28.0879 10.1345 24.4005C10.8018 33.0989 11.6193 34.8327 12.7012 24.8205C16.7226 31.7949 19.4276 35.5653 15.7308 23.8486H15.7248ZM10.405 21.9731C9.96022 21.05 10.2488 20.0928 11.0602 19.8339C11.8657 19.5751 12.8876 20.1123 13.3324 21.0354C13.7772 21.9585 13.4887 22.9157 12.6772 23.1746C11.8717 23.4334 10.8499 22.8962 10.405 21.9731Z" fill="#850022" stroke="#850022" stroke-miterlimit="10"/>
<path d="M71.7474 42.3102C81.2027 40.5373 80.5054 40.1465 70.9419 40.9671C76.2857 33.768 75.1015 33.7925 68.7479 39.5409C66.8725 30.5739 66.5719 35.4872 66.1572 39.3895C57.9401 34.6276 59.0461 36.8498 63.2659 41.4164C55.9024 42.1148 54.7663 43.0281 63.4282 44.2833C58.992 48.4347 61.727 47.5458 65.5741 45.8755C65.2134 50.8083 65.3397 53.9048 68.3692 45.9829C76.5742 51.5995 78.6841 52.3126 70.5151 44.7668C79.5016 47.2186 84.7252 48.2345 71.7474 42.315V42.3102ZM66.4036 44.1417C65.2735 43.7656 64.6243 42.9353 64.955 42.2809C65.2856 41.6264 66.4637 41.4017 67.5938 41.7729C68.7239 42.1441 69.373 42.9793 69.0424 43.6337C68.7118 44.2882 67.5337 44.5128 66.4036 44.1417Z" fill="#50365E" stroke="#50365E" stroke-miterlimit="10"/>
<path d="M35.8376 7.13557C29.8987 2.10993 29.7906 2.7302 34.7797 8.28331C24.9457 8.42006 25.4867 9.1429 34.2387 10.3297C25.685 15.7998 30.9447 13.6313 35.2005 12.0147C33.7819 19.4091 35.6272 17.6557 38.5666 12.8401C42.4858 17.0794 43.9284 17.348 41.488 11.3602C47.7454 12.1221 45.6356 10.8523 42.2213 9.265C47.535 7.12092 50.7089 5.55315 41.1213 7.47745C43.4355 -0.31742 43.2732 -1.9731 38.9213 6.72531C37.5928 -0.0341477 36.3966 -3.77041 35.8256 7.14045L35.8376 7.13557ZM40.0634 9.57757C40.1595 10.4567 39.5705 11.2626 38.747 11.3749C37.9234 11.4872 37.1781 10.8621 37.0759 9.97806C36.9737 9.09406 37.5688 8.29308 38.3923 8.18075C39.2158 8.06842 39.9612 8.69357 40.0634 9.57757Z" fill="#004469" stroke="#004469" stroke-miterlimit="10"/>
<path d="M28.9189 47.0965C23.1303 53.4261 23.9719 53.3578 30.608 47.6972C32.2791 55.9951 33.1627 55.3504 33.4152 47.6288C41.9929 53.4701 38.3081 49.5727 35.507 46.3785C45.5634 45.6801 42.9486 44.5666 36.0961 43.3114C41.1453 38.9011 41.2836 37.6069 33.6857 41.2161C33.7518 35.7167 32.3813 37.8364 30.7823 41.1331C27.1216 37.1868 24.5549 34.8962 28.5643 42.525C17.8406 42.569 15.6587 43.1355 27.8971 44.5812C19.0969 47.4481 14.3122 49.4213 28.9129 47.0965H28.9189ZM31.5277 42.8913C32.6878 42.5837 33.848 42.8718 34.1185 43.5458C34.389 44.2149 33.6736 45.011 32.5135 45.3187C31.3534 45.6264 30.1933 45.3382 29.9228 44.6642C29.6523 43.9951 30.3676 43.199 31.5277 42.8913Z" fill="#A6A000"/>
<path d="M67.6659 14.1294C64.4741 6.68618 64.0713 7.28691 66.1091 14.9255C56.7199 11.3895 56.8822 12.3419 64.6003 16.8498C53.8346 19.3358 59.8756 19.0476 64.6965 18.9597C59.7614 26.1148 62.3642 24.9817 67.4916 21.0745C69.1446 26.945 70.3889 27.7655 70.978 20.63C76.5382 23.7655 75.1556 21.6508 72.6911 18.7253C78.7682 18.4811 82.5372 18.0464 72.5168 16.4542C78.4978 9.22098 79.1469 7.43832 70.7977 14.8522C72.8234 7.32599 73.5026 2.99876 67.6659 14.1245V14.1294ZM70.4851 18.2466C70.1485 19.199 69.1987 19.8144 68.3692 19.619C67.5337 19.4237 67.1309 18.4957 67.4615 17.5433C67.7922 16.5909 68.7479 15.9756 69.5774 16.1709C70.4129 16.3663 70.8157 17.2942 70.4851 18.2466Z" fill="#643500" stroke="#643500" stroke-miterlimit="10"/>
</g>
<defs>
<clipPath id="clip0_552_95">
<rect width="83" height="56" fill="white"/>
</clipPath>
</defs>
</svg>
