<svg width="71" height="37" viewBox="0 0 71 37" fill="none" xmlns="http://www.w3.org/2000/svg">
<path d="M0 19.83C1.25 25.76 2.03 24.67 2.59 20.08C2.59 20.04 2.66 20.04 2.67 20.08C3.76 26.04 4.48 25.35 5.31 20.1C5.31 20.06 5.37 20.07 5.37 20.1C5.77 25.46 6.57 24.98 7.68 20.08C7.69 20.03 7.76 20.03 7.77 20.08C8.28 24.11 9.07 25.17 10.46 19.82" fill="#0144D2"/>
<path d="M67.93 20.14C66.71 25.95 65.93 25.02 65.38 20.68C65.37 20.59 65.23 20.58 65.22 20.68C64.16 26.25 63.54 23.49 62.66 20.39C62.65 20.34 62.58 20.36 62.57 20.41C62.18 25.7 61.39 25.32 60.31 20.62C60.29 20.53 60.16 20.53 60.15 20.62C59.64 24.48 58.85 25.41 57.49 20.15" fill="#0144D2"/>
<path d="M50.9984 19.812C51.1079 11.7858 45.4473 5.01889 37.3395 4.10229C28.3263 3.09004 19.7211 9.7055 18.1194 18.8635C18.0597 19.1824 18.0398 19.4932 18 19.8041H27.2917C26.1675 22.0278 25.5507 24.1081 25.5607 26.013C25.5607 27.5194 26.2471 28.986 27.4509 30.1497C31.6291 34.2066 35.3001 33.7364 38.6029 29.9823C39.4584 29.0179 39.9956 27.894 40.1548 26.7144C40.4632 24.4428 39.9559 22.1314 38.9809 19.7961H50.9885L50.9984 19.812ZM28.4755 11.8416C27.6498 11.8416 26.9833 11.1242 26.9833 10.2475C26.9833 9.37075 27.6498 8.65341 28.4755 8.65341C29.3012 8.65341 29.9678 9.37075 29.9678 10.2475C29.9678 11.1242 29.3012 11.8416 28.4755 11.8416ZM38.4238 11.8416C37.5981 11.8416 36.9316 11.1242 36.9316 10.2475C36.9316 9.37075 37.5981 8.65341 38.4238 8.65341C39.2495 8.65341 39.9161 9.37075 39.9161 10.2475C39.9161 11.1242 39.2495 11.8416 38.4238 11.8416Z" fill="#0144D2"/>
</svg>
