<svg width="76" height="59" viewBox="0 0 76 59" fill="none" xmlns="http://www.w3.org/2000/svg">
<path d="M38.1291 53.3256C39.034 52.5353 39.5816 51.5172 39.5816 50.4062C39.5816 48.2631 37.556 46.4659 34.8241 45.9794C35.1447 45.4253 35.3262 44.8094 35.3262 44.1625C35.3262 41.9069 33.1787 40.0506 30.4184 39.8059C29.8511 34.8278 26.4865 31 22.4184 31C18.827 31 15.7858 33.9813 14.7305 38.1072C10.0496 38.3744 6.32199 41.7719 6.11773 45.9906C3.02837 47.1775 1 49.1659 1 51.4187C1 55.0525 6.27092 58 12.773 58C15.9106 58 18.7589 57.3138 20.8667 56.1944C22.9915 56.4784 25.7035 56.65 28.6596 56.65C35.4738 56.65 41 55.7444 41 54.625C41 54.13 39.922 53.6772 38.1291 53.3256ZM14.0496 48.1562C12.7957 48.1562 11.7801 46.3309 11.7801 44.0781C11.7801 41.8253 12.7957 40 14.0496 40C15.3035 40 16.3191 41.8253 16.3191 44.0781C16.3191 46.3309 15.3035 48.1562 14.0496 48.1562ZM20.4326 48.1562C19.1021 48.1562 18.0213 46.3309 18.0213 44.0781C18.0213 41.8253 19.1021 40 20.4326 40C21.7631 40 22.844 41.8253 22.844 44.0781C22.844 46.3309 21.7631 48.1562 20.4326 48.1562Z" fill="white" stroke="white" stroke-miterlimit="10"/>
<g clip-path="url(#clip0_552_41)">
<path d="M71.972 14.1789C72.4156 13.7589 72.663 13.3039 72.663 12.8333C72.663 11.1845 69.7028 9.76501 65.4471 9.11946C64.5952 4.05612 60.155 0.194458 54.8 0.194458C51.4904 0.194458 48.5381 1.67224 46.5555 3.99779C45.8803 3.80724 45.154 3.69446 44.3963 3.69446C40.9258 3.69446 38.1148 5.87224 38.1148 8.55557C38.1148 8.59835 38.1227 8.64112 38.1227 8.6839C35.3549 9.22835 33.019 10.4261 31.5507 12.0089C26.7846 12.705 23.1963 15.7695 23.1963 19.4445C23.1963 23.1195 26.5647 25.9933 31.107 26.8061C31.4761 28.6883 33.6785 30.1389 36.3481 30.1389C37.3689 30.1389 38.319 29.925 39.1277 29.5556C41.389 32.6628 46.1512 34.8056 51.6593 34.8056C55.6715 34.8056 59.2873 33.6661 61.8313 31.85C62.9463 32.2545 64.1476 32.4722 65.4 32.4722C71.1475 32.4722 75.8037 27.86 75.8037 22.1667C75.8037 18.9428 74.3118 16.0689 71.972 14.1789ZM41.8444 21.1945C40.435 21.1945 39.2926 18.9311 39.2926 16.1389C39.2926 13.3467 40.435 11.0833 41.8444 11.0833C43.2538 11.0833 44.3963 13.3467 44.3963 16.1389C44.3963 18.9311 43.2538 21.1945 41.8444 21.1945ZM49.6963 21.5833C48.2869 21.5833 47.1444 19.32 47.1444 16.5278C47.1444 13.7356 48.2869 11.4722 49.6963 11.4722C51.1057 11.4722 52.2481 13.7356 52.2481 16.5278C52.2481 19.32 51.1057 21.5833 49.6963 21.5833Z" fill="white" stroke="white" stroke-miterlimit="10"/>
</g>
<defs>
<clipPath id="clip0_552_41">
<rect width="53" height="35" fill="white" transform="translate(23)"/>
</clipPath>
</defs>
</svg>
