<svg width="43" height="49" viewBox="0 0 43 49" fill="none" xmlns="http://www.w3.org/2000/svg">
<g clip-path="url(#clip0_552_15)">
<path d="M-1.67426e-05 26.7035C-1.67426e-05 25.7422 1.32432 24.9075 3.28153 24.4644C1.50012 23.7048 0.386737 22.6842 0.543001 21.7624C0.671919 20.9791 1.68373 20.4292 3.16043 20.2037C1.69935 19.2622 0.875063 18.198 1.12899 17.3632C1.40245 16.4652 2.8518 16.0617 4.78557 16.1962C3.31669 14.1905 2.74633 12.2876 3.51202 11.5082C4.12926 10.8832 5.46142 11.1324 6.9889 12.0225C5.27781 9.39173 4.69572 6.82028 5.71535 6.04885C6.60605 5.37631 8.44216 6.27434 10.2236 8.10996C9.58679 5.47521 9.81728 3.29541 10.8955 2.88794C11.9503 2.48837 13.4973 3.92048 14.7084 6.25061C14.0755 3.17278 14.47 0.565719 15.6967 0.229453C17.0523 -0.142419 18.9001 2.3776 19.8299 5.85895C19.8651 5.98555 19.8924 6.11214 19.9237 6.23874C19.9823 2.76926 21.0917 0 22.4591 0C23.5412 0 24.4631 1.74463 24.8304 4.1974C26.0883 2.16398 27.565 0.981108 28.5416 1.40045C29.3777 1.7565 29.6394 3.19651 29.3464 5.06774C30.1355 4.81059 30.9325 4.88576 31.5224 5.35258C31.956 5.70071 32.2099 6.21105 32.292 6.78863C33.6398 5.95786 34.9563 5.77192 35.6595 6.43654C36.4408 7.16842 36.2494 8.73107 35.3079 10.3175C36.9447 9.93767 38.4293 10.3293 38.8902 11.3777C39.2457 12.1808 38.9176 13.1777 38.1284 14.0401C39.9255 14.0955 41.3319 14.8313 41.5116 15.947C41.66 16.8608 40.9412 17.7984 39.7497 18.4551C41.4998 18.8705 42.7343 19.903 42.6562 21.0187C42.5898 21.9365 41.6561 22.6683 40.3279 22.9848C42.4218 24.8046 43.4844 26.838 42.7734 27.9932C42.3046 28.7567 41.1522 28.9783 39.695 28.7251C41.1209 30.4381 41.6717 32.2302 40.9139 33.1361C40.3122 33.8561 39.0231 33.8403 37.562 33.2271C37.5854 33.2469 37.6128 33.2667 37.6362 33.2865C39.7653 35.1142 40.781 37.4443 39.902 38.4927C39.3434 39.1573 38.1558 39.1454 36.8197 38.5797C37.3588 39.814 37.3628 41.0285 36.7025 41.8197C35.8509 42.8364 34.1437 42.876 32.4482 42.0571C32.8819 43.0224 32.9288 43.8927 32.4834 44.4268C31.8271 45.2101 30.3035 45.0558 28.6862 44.1657C29.1159 45.6452 28.9948 46.9072 28.2447 47.3938C27.3228 47.9991 25.7367 47.2475 24.3655 45.6809C24.1037 47.5679 23.299 48.9367 22.2715 48.996C21.1347 49.0593 20.0877 47.4967 19.6893 45.3248C19.0252 46.6778 18.1071 47.4967 17.2398 47.3503C16.1929 47.1723 15.5366 45.6373 15.517 43.6474C15.1576 43.8136 14.7709 43.9125 14.3685 43.9125C12.9855 43.9125 11.7979 42.8404 11.2549 41.3015C10.5166 41.9542 9.68446 42.243 8.93439 42.0057C7.66865 41.61 7.04359 39.8615 7.32096 37.8439C6.20758 39.0544 5.0981 39.6478 4.35194 39.272C3.30888 38.7458 3.3206 36.4948 4.26209 33.8917C3.17605 34.2161 2.30488 34.1647 1.88297 33.6583C1.17587 32.7999 1.94938 30.9088 3.64094 29.0139C1.48449 28.5985 -0.00782864 27.7203 -0.00782864 26.6996L-1.67426e-05 26.7035ZM32.0341 31.253H13.3254C20.3886 39.4777 26.4946 38.2039 32.0341 31.253ZM18.947 21.165C18.947 25.5365 19.7322 29.0772 20.705 29.0772C21.6777 29.0772 22.463 25.5365 22.463 21.165C22.463 16.7936 21.6777 13.2529 20.705 13.2529C19.7322 13.2529 18.947 16.7936 18.947 21.165ZM27.7369 13.2529C26.7641 13.2529 25.9789 16.7936 25.9789 21.165C25.9789 25.5365 26.7641 29.0772 27.7369 29.0772C28.7096 29.0772 29.4949 25.5365 29.4949 21.165C29.4949 16.7936 28.7096 13.2529 27.7369 13.2529Z" fill="#F9255B"/>
</g>
<defs>
<clipPath id="clip0_552_15">
<rect width="43" height="49" fill="white" transform="matrix(-1 0 0 1 43 0)"/>
</clipPath>
</defs>
</svg>
