<svg width="71" height="37" viewBox="0 0 71 37" fill="none" xmlns="http://www.w3.org/2000/svg">
<g clip-path="url(#clip0_552_67)">
<path d="M0 19.8299C1.25 25.7599 2.03 24.6699 2.59 20.0799C2.59 20.0399 2.66 20.0399 2.67 20.0799C3.76 26.0399 4.48 25.3499 5.31 20.0999C5.31 20.0599 5.37 20.0699 5.37 20.0999C5.77 25.4599 6.57 24.9799 7.68 20.0799C7.69 20.0299 7.76 20.0299 7.77 20.0799C8.28 24.1099 9.07 25.1699 10.46 19.8199" fill="#4E78C2"/>
<path d="M67.93 20.14C66.71 25.95 65.93 25.02 65.38 20.68C65.37 20.59 65.23 20.58 65.22 20.68C64.16 26.25 63.54 23.49 62.66 20.39C62.65 20.34 62.58 20.36 62.57 20.41C62.18 25.7 61.39 25.32 60.31 20.62C60.29 20.53 60.16 20.53 60.15 20.62C59.64 24.48 58.85 25.41 57.49 20.15" fill="#4E78C2"/>
<path d="M51.14 19.83C51.25 9.76003 45.56 1.27003 37.41 0.120031C28.35 -1.14997 19.7 7.15003 18.09 18.64C18.03 19.04 18.01 19.43 17.97 19.82H27.31C26.18 22.61 25.56 25.22 25.57 27.61C25.57 29.5 26.26 31.34 27.47 32.8C31.67 37.89 35.36 37.3 38.68 32.59C39.54 31.38 40.08 29.97 40.24 28.49C40.55 25.64 40.04 22.74 39.06 19.81H51.13L51.14 19.83ZM28.5 9.83003C27.67 9.83003 27 8.93003 27 7.83003C27 6.73003 27.67 5.83003 28.5 5.83003C29.33 5.83003 30 6.73003 30 7.83003C30 8.93003 29.33 9.83003 28.5 9.83003ZM38.5 9.83003C37.67 9.83003 37 8.93003 37 7.83003C37 6.73003 37.67 5.83003 38.5 5.83003C39.33 5.83003 40 6.73003 40 7.83003C40 8.93003 39.33 9.83003 38.5 9.83003Z" fill="#4E78C2"/>
</g>
<defs>
<clipPath id="clip0_552_67">
<rect width="70.87" height="36.39" fill="white"/>
</clipPath>
</defs>
</svg>
