<svg width="27" height="30" viewBox="0 0 27 30" fill="none" xmlns="http://www.w3.org/2000/svg">
<path d="M22.0727 9.39434C21.6573 9.12798 21.3334 8.77074 21.129 8.37035C20.8594 7.8402 20.5778 7.33976 20.3019 6.86367C19.7465 7.3382 18.9937 7.55707 18.2316 7.39046C16.9228 7.10434 16.1034 5.78877 16.3964 4.44844C16.5189 3.8885 16.8146 3.41728 17.2196 3.07618C14.9817 1.37197 12.4754 1.70179 9.55335 5.14219C10.0688 5.60597 10.4568 6.19897 10.6296 6.86965C11.0749 8.6116 9.92007 10.2162 8.0506 10.4543C6.75345 10.6189 5.45563 10.0811 4.62791 9.15633C4.29387 9.37435 3.99609 9.62801 3.74413 9.92402C2.61792 11.2716 2.59341 12.6937 3.80489 14.2059C4.3367 14.8719 5.23085 15.266 6.14341 15.2484C7.35427 15.2267 9.2084 15.2855 11.2585 15.3549C9.96498 18.0472 9.1389 21.3221 8.86748 25.3096C8.81295 26.1385 9.42622 26.9609 10.3775 27.2197C11.7287 27.589 13.1342 27.5082 14.5981 26.8581C15.1224 26.6262 15.5895 26.3033 15.9707 25.9201C17.5807 24.2994 17.1561 23.2688 17.0947 22.0635C17.0397 20.9797 16.7806 19.8975 16.3537 18.8525C15.7906 17.4729 15.7098 16.4065 15.8759 15.4958C16.123 15.499 16.3744 15.5078 16.6163 15.5098C15.9016 15.0256 15.3565 14.2689 15.1746 13.3884C14.8361 11.7622 15.8602 10.3276 17.4561 10.1821C19.051 10.0411 20.622 11.2438 20.9604 12.87C21.1794 13.9342 20.8177 14.9084 20.0982 15.5042C22.127 15.4441 23.5819 15.2633 23.7529 14.8341C25.2986 12.8021 24.5843 11.0059 22.0632 9.38763L22.0727 9.39434Z" fill="#0F9E27" stroke="#0F9E27" stroke-miterlimit="10"/>
<path d="M4.62693 9.16071C5.25051 8.75191 5.99481 8.47113 6.78483 8.2835C7.28408 8.16628 7.66027 7.90666 7.9153 7.49583C8.20389 7.03227 8.45858 6.54745 8.78632 6.10631C9.04363 5.76065 9.30041 5.44259 9.55859 5.14331" stroke="#0F9E27" stroke-miterlimit="10"/>
<path d="M20.1088 15.5065L16.6269 15.5122C17.8783 15.5317 19.0719 15.5385 20.1088 15.5065Z" stroke="#0F9E27" stroke-miterlimit="10"/>
<path d="M17.2197 3.07617C20.019 5.4621 20.0246 6.64595 20.3019 6.86365" stroke="#0F9E27" stroke-miterlimit="10"/>
</svg>
