<svg width="65" height="49" viewBox="0 0 65 49" fill="none" xmlns="http://www.w3.org/2000/svg">
<g clip-path="url(#clip0_552_42)">
<path d="M60.7625 27.4319C58.2174 32.1694 43.6479 30.9872 32.0433 24.8396C20.4388 18.692 9.91643 9.15686 12.4615 4.41936C15.0067 -0.318134 27.1306 4.38927 38.7351 10.5368C50.3396 16.6844 63.3076 22.6944 60.7625 27.4362V27.4319Z" fill="#FD900D"/>
<path d="M15.617 2.92766C23.1831 10.6272 38.259 16.4093 53.1791 21.6799C56.5033 22.8535 59.5332 24.7623 61.8965 27.3675C65.3419 31.1635 65.0952 33.902 59.9401 35.2303C56.3691 36.1503 52.5904 35.8838 49.1233 34.6242C31.9005 28.3562 18.0366 21.5466 11.4314 13.5505C4.83485 5.58874 3.11213 0.666387 8.60058 0.240786C11.2149 0.0387327 13.7817 1.06189 15.6126 2.92766H15.617Z" fill="#B10308" stroke="#B10308" stroke-miterlimit="10"/>
<path d="M64.5715 45.1438C61.1953 51.4289 41.8732 49.8598 26.4813 41.7046C11.0894 33.5537 -2.86542 20.906 0.510751 14.6209C3.88692 8.33574 19.967 14.5779 35.3546 22.7331C50.7465 30.8883 67.9433 38.8586 64.5715 45.1438Z" fill="#FD900D"/>
<path d="M15.5261 8.38733C13.0069 11.431 14.5911 12.9744 22.0793 12.3639C23.5207 12.2478 25.0053 12.2349 26.4207 12.4112C29.4679 12.7852 31.3811 13.6837 31.5239 15.3689C31.5499 15.6526 31.4936 15.9407 31.4244 16.2244C30.6236 19.4143 33.2813 21.1124 40.3106 20.9146C41.6525 20.8759 43.0073 20.9017 44.3101 21.0522C47.9936 21.4821 50.608 22.3032 50.6383 24.0744C50.6513 24.9557 50.8071 25.8413 51.3308 26.6882C52.3393 28.3218 54.0101 29.2031 57.4209 28.1025" stroke="#FD900D" stroke-miterlimit="10"/>
</g>
<defs>
<clipPath id="clip0_552_42">
<rect width="65" height="49" fill="white"/>
</clipPath>
</defs>
</svg>
