<svg width="54" height="685" viewBox="0 0 54 685" fill="none" xmlns="http://www.w3.org/2000/svg">
<g clip-path="url(#clip0_552_138)">
<path d="M23.8379 17.9107C8.48127 12.9492 9.05783 14.2208 23.5797 20.9601C8.38775 29.039 10.1051 30.0037 25.2078 25.3345C18.4509 42.6863 24.0435 34.3214 28.7511 27.8141C35.4695 43.2023 36.2327 38.3543 35.0141 26.731C46.2604 31.7914 48.8422 31.1584 37.7881 21.5585C48.4876 18.0574 43.6497 17.2843 36.4006 16.9347C42.1032 8.57012 45.1782 3.02842 32.5176 14.3542C26.7132 -2.52155 24.4514 -5.57768 28.1767 14.6525C17.9291 2.66471 11.546 -3.58258 23.8479 17.9108L23.8379 17.9107ZM33.3843 19.2666C34.5999 20.8899 34.6544 22.91 33.5021 23.7769C32.3497 24.6438 30.4214 24.0286 29.2057 22.4153C27.9901 20.802 27.9356 18.7718 29.0879 17.9049C30.2403 17.0381 32.1686 17.6533 33.3843 19.2666Z" fill="#B10308" stroke="#B10308" stroke-miterlimit="10"/>
<path d="M34.3681 36.3393C50.0188 32.4016 48.8509 31.6285 32.9754 33.6155C41.5758 18.7087 39.6056 18.7934 29.2731 30.7655C25.8026 12.4761 25.4954 22.5353 24.9537 30.5438C11.0993 21.0563 13.0171 25.5815 20.2222 34.781C7.99769 36.448 6.14251 38.363 20.6064 40.6421C13.393 49.2826 17.9082 47.3748 24.2378 43.8319C23.8404 53.9409 24.1633 60.2718 28.8974 43.9645C42.7671 55.1921 46.3033 56.5917 32.4244 41.4041C47.4716 46.1348 56.1965 48.0384 34.3681 36.3493L34.3681 36.3393ZM25.5575 40.2555C23.6594 39.5304 22.554 37.8474 23.0676 36.4987C23.5913 35.1502 25.5426 34.6454 27.4307 35.3805C29.3187 36.1157 30.4341 37.7887 29.9205 39.1373C29.3968 40.4859 27.4455 40.9906 25.5575 40.2555Z" fill="#FD900D" stroke="#FD900D" stroke-miterlimit="10"/>
<path d="M27.0424 49.5094C38.1641 37.8095 36.7642 37.7857 24.4067 47.9523C23.6932 30.7503 22.0801 31.886 19.7578 47.5197C7.03455 33.9153 12.1611 42.5892 15.9921 49.6396C-0.786368 49.0342 3.2561 51.8251 14.2655 55.7549C4.83399 63.6994 4.28693 66.308 17.7327 60.5043C16.2625 71.6704 19.0534 67.6379 22.5007 61.2572C27.567 70.0209 31.233 75.1909 26.5071 58.878C44.2316 60.946 47.9635 60.2361 28.1181 54.8324C43.3591 50.7736 51.7574 47.7263 27.0624 49.5195L27.0424 49.5094ZM21.6907 57.535C19.6996 57.9296 17.8619 57.1046 17.5757 55.6839C17.2896 54.2631 18.6735 52.7968 20.6646 52.4022C22.6557 52.0076 24.4935 52.8326 24.7796 54.2533C25.0658 55.6741 23.6818 57.1404 21.6907 57.535Z" fill="#35B84B" stroke="#35B84B" stroke-miterlimit="10"/>
<path d="M20.1818 75.6411C20.0581 91.7808 21.1007 90.8436 23.1736 74.9791C35.451 87.0424 35.8462 85.1235 26.8614 72.1091C45.4381 73.3394 35.7757 70.5132 28.1625 67.9826C40.8224 56.9468 35.9604 57.6737 25.2478 62.3347C26.7009 50.0886 25.3171 47.8048 19.4807 61.2391C12.9255 52.0813 13.6423 56.9333 15.4834 63.9483C5.79126 61.0221 -0.415335 59.7553 14.1913 68.4248C-0.157457 79.0261 -2.40578 82.1 15.7803 72.4791C7.42409 85.8566 3.38253 93.8257 20.1918 75.6311L20.1818 75.6411ZM18.5975 66.1267C19.782 64.4799 21.6837 63.8251 22.8615 64.6583C24.0392 65.5014 24.0337 67.5214 22.8493 69.1682C21.6648 70.815 19.7631 71.4699 18.5853 70.6367C17.4076 69.7935 17.413 67.7735 18.5975 66.1267Z" fill="#009CF1" stroke="#009CF1" stroke-miterlimit="10"/>
<path d="M23.6772 88.4206C30.8463 73.9599 29.4953 74.3462 20.6991 87.7125C14.9429 71.4969 13.7287 73.0536 16.1264 88.6801C-0.0386365 79.4464 7.41311 86.2066 13.1579 91.8221C-3.05399 96.2083 1.63205 97.681 13.3108 98.1726C6.64266 108.555 6.89549 111.205 18.0213 101.685C19.9113 112.78 21.3939 108.114 22.8032 100.998C30.2346 107.868 35.2642 111.722 25.9225 97.5367C43.4714 94.2741 46.8262 92.4932 26.2643 93.1976C39.627 84.8237 46.7416 79.4229 23.6772 88.4306L23.6772 88.4206ZM20.9321 97.6732C19.1495 98.6384 17.1402 98.3929 16.4536 97.1211C15.7671 95.8492 16.6519 94.0416 18.4346 93.0664C20.2172 92.0912 22.2266 92.3466 22.9131 93.6185C23.5997 94.8904 22.7148 96.698 20.9321 97.6732Z" fill="#0144D2" stroke="#0144D2" stroke-miterlimit="10"/>
<path d="M15.2292 117.248C-0.164032 122.106 1.04407 122.809 16.782 119.882C9.0804 135.271 11.041 135.067 20.6449 122.512C25.1961 140.565 24.9033 130.504 24.965 122.484C39.3617 131.133 37.1736 126.727 29.4373 117.966C41.5338 115.579 43.2792 113.564 28.703 112.134C35.3876 103.072 31.0017 105.25 24.8911 109.164C24.6884 99.0433 23.9855 92.7414 20.2307 109.311C5.7187 98.922 2.10188 97.7422 16.8632 112.072C1.56345 108.251 -7.26281 106.857 15.2192 117.238L15.2292 117.248ZM23.7912 112.811C25.7195 113.426 26.9352 115.039 26.5015 116.418C26.0677 117.797 24.1461 118.412 22.2077 117.797C20.2794 117.181 19.0637 115.568 19.4975 114.189C19.9312 112.81 21.8529 112.196 23.7912 112.811Z" fill="#875C9F" stroke="#875C9F" stroke-miterlimit="10"/>
<path d="M24.7536 137.824C37.8079 147.319 37.6517 145.929 25.9512 135.007C42.9092 132.053 41.5731 130.609 25.7638 130.336C37.5828 115.948 29.666 122.157 23.1732 126.879C21.5784 110.165 19.3365 114.539 16.8856 125.962C7.77808 117.648 5.11863 117.44 12.6347 130.011C1.37462 130.01 5.72857 132.252 12.5116 134.84C4.48488 141.009 -0.156784 145.316 15.3917 138.498C15.6535 156.339 16.8537 159.952 19.6189 139.56C25.6295 154.136 29.748 162.067 24.7536 137.814L24.7536 137.824ZM16.095 133.57C15.4402 131.648 16.0255 129.72 17.3867 129.254C18.758 128.787 20.3948 129.972 21.0496 131.894C21.7044 133.815 21.1192 135.744 19.7579 136.21C18.3867 136.676 16.7499 135.492 16.095 133.57Z" fill="#F9255B" stroke="#F9255B" stroke-miterlimit="10"/>
</g>
<g clip-path="url(#clip1_552_138)">
<path d="M25.2202 151.025C40.6253 146.215 40.0361 147.481 25.4482 154.076C40.5593 162.305 38.8324 163.253 23.7767 158.434C30.3613 175.852 24.8519 167.432 20.209 160.879C13.3384 176.2 12.6234 171.344 13.9571 159.734C2.66116 164.682 0.0858346 164.024 11.2345 154.534C0.570272 150.927 5.41563 150.202 12.6678 149.924C7.04838 141.503 4.02847 135.931 16.5762 147.382C22.5476 130.565 24.8396 127.531 20.9139 147.723C31.2799 135.838 37.7246 129.654 25.2102 151.024L25.2202 151.025ZM15.6609 152.286C14.4292 153.897 14.3547 155.916 15.4984 156.795C16.6421 157.673 18.5764 157.077 19.808 155.476C21.0396 153.874 21.1142 151.845 19.9705 150.967C18.8268 150.088 16.8924 150.684 15.6609 152.286Z" fill="#B10308" stroke="#B10308" stroke-miterlimit="10"/>
<path d="M14.4978 169.348C-1.11308 165.255 0.0624408 164.493 15.9174 166.638C7.46526 151.646 9.43455 151.751 19.6478 163.825C23.2995 145.57 23.5069 155.632 23.9692 163.646C37.9169 154.296 35.9544 158.802 28.6584 167.93C40.8658 169.718 42.7019 171.651 28.2162 173.787C35.3435 182.498 30.8475 180.546 24.5533 176.94C24.8504 187.053 24.4648 193.38 19.8926 177.027C5.91228 188.116 2.36235 189.481 16.3912 174.431C1.29779 179.013 -7.44554 180.83 14.4977 169.358L14.4978 169.348ZM23.2692 173.351C25.1743 172.645 26.2964 170.973 25.7962 169.619C25.2859 168.265 23.3396 167.741 21.4444 168.458C19.5492 169.174 18.4172 170.836 18.9174 172.189C19.4277 173.543 21.374 174.067 23.2692 173.351Z" fill="#FD900D" stroke="#FD900D" stroke-miterlimit="10"/>
<path d="M21.6925 182.59C10.6874 170.78 12.0875 170.77 24.3436 181.059C25.2276 163.865 26.8294 165.016 28.9966 180.672C41.8541 167.195 36.6418 175.817 32.7411 182.829C49.5247 182.39 45.4548 185.141 34.4069 188.962C43.7592 196.999 44.2804 199.613 30.8928 193.676C32.2523 204.857 29.5015 200.797 26.1176 194.382C20.9647 203.095 17.2476 208.228 22.135 191.963C4.39087 193.855 0.666156 193.108 20.5642 187.902C5.36417 183.692 -3.00348 180.562 21.6725 182.6L21.6925 182.59ZM26.9644 190.668C28.9515 191.082 30.7974 190.276 31.0976 188.858C31.3978 187.44 30.0285 185.96 28.0414 185.546C26.0543 185.131 24.2085 185.938 23.9082 187.356C23.608 188.774 24.9774 190.254 26.9644 190.668Z" fill="#35B84B" stroke="#35B84B" stroke-miterlimit="10"/>
<path d="M28.2938 208.788C28.2574 224.928 27.2243 223.981 25.3087 208.097C12.9123 220.038 12.5362 218.115 21.6496 205.19C3.06156 206.236 12.7515 203.506 20.3894 201.051C7.83953 189.89 12.6941 190.665 23.36 195.432C22.0283 183.172 23.4347 180.902 29.1376 194.394C35.7833 185.302 35.0184 190.146 33.1079 197.143C42.8286 194.313 49.0474 193.107 34.3556 201.632C48.5985 212.375 50.8162 215.471 32.7264 205.67C40.9496 219.13 44.9119 227.139 28.2839 208.778L28.2938 208.788ZM29.9723 199.29C28.8043 197.632 26.9091 196.958 25.7231 197.779C24.5371 198.611 24.5225 200.631 25.6906 202.289C26.8587 203.948 28.7539 204.621 29.9398 203.8C31.1258 202.968 31.1404 200.949 29.9723 199.29Z" fill="#009CF1" stroke="#009CF1" stroke-miterlimit="10"/>
<path d="M24.6718 221.532C17.6464 207.001 18.9936 207.401 27.6568 220.854C33.5735 204.696 34.7722 206.265 32.2196 221.867C48.4755 212.794 40.9571 219.48 35.1568 225.038C51.3245 229.585 46.6241 231.011 34.9411 231.387C41.5059 241.834 41.2268 244.482 30.1959 234.852C28.196 245.928 26.7598 241.248 25.4211 234.118C17.9219 240.914 12.8544 244.718 22.3362 230.626C4.82054 227.189 1.48353 225.375 22.0375 226.283C8.7585 217.777 1.69776 212.306 24.6718 221.542L24.6718 221.532ZM27.325 230.812C29.098 231.794 31.1096 231.569 31.8088 230.304C32.5079 229.039 31.641 227.223 29.8681 226.23C28.0952 225.237 26.0835 225.473 25.3843 226.738C24.6852 228.003 25.5521 229.819 27.325 230.812Z" fill="#0144D2" stroke="#0144D2" stroke-miterlimit="10"/>
<path d="M32.8436 250.442C48.1879 255.453 46.9729 256.144 31.2647 253.061C38.8134 268.526 36.855 268.301 27.3759 255.653C22.646 273.659 23.0385 263.602 23.0563 255.582C8.57462 264.087 10.8063 259.703 18.6291 251.02C6.55686 248.512 4.83147 246.48 19.4211 245.195C12.8267 236.067 17.1908 238.289 23.2623 242.263C23.5653 232.145 24.3307 225.85 27.9211 242.456C42.5353 232.211 46.1637 231.068 31.261 245.25C46.5979 241.581 55.4375 240.275 32.8537 250.432L32.8436 250.442ZM24.326 245.92C22.3917 246.517 21.1601 248.118 21.5801 249.501C22.0002 250.884 23.9156 251.518 25.86 250.922C27.7943 250.326 29.0259 248.724 28.6059 247.341C28.1858 245.958 26.2704 245.324 24.326 245.92Z" fill="#875C9F" stroke="#875C9F" stroke-miterlimit="10"/>
<path d="M23.1157 270.922C9.96786 280.288 10.1379 278.899 21.9461 268.094C5.01815 264.972 6.3685 263.541 22.1797 263.425C10.504 248.921 18.3589 255.208 24.8046 259.994C26.565 243.296 28.7633 247.692 31.1009 259.14C40.2904 250.916 42.9518 250.735 35.3115 263.23C46.571 263.341 42.195 265.54 35.3867 268.061C43.3518 274.308 47.9506 278.662 32.4704 271.69C32.0318 289.527 30.7958 293.128 28.233 272.709C22.0782 287.225 17.8812 295.115 23.1158 270.912L23.1157 270.922ZM31.816 266.755C32.4898 264.84 31.9237 262.906 30.5672 262.426C29.2006 261.946 27.5521 263.114 26.8783 265.029C26.2045 266.944 26.7706 268.879 28.1271 269.358C29.4937 269.838 31.1422 268.67 31.816 266.755Z" fill="#F9255B" stroke="#F9255B" stroke-miterlimit="10"/>
</g>
<g clip-path="url(#clip2_552_138)">
<path d="M28.8379 281.911C13.4813 276.949 14.0578 278.221 28.5797 284.96C13.3877 293.039 15.1051 294.004 30.2078 289.334C23.4509 306.686 29.0435 298.321 33.7511 291.814C40.4695 307.202 41.2327 302.354 40.0141 290.731C51.2604 295.791 53.8422 295.158 42.7881 285.558C53.4876 282.057 48.6497 281.284 41.4006 280.935C47.1032 272.57 50.1782 267.028 37.5176 278.354C31.7132 261.478 29.4514 258.422 33.1767 278.652C22.9291 266.665 16.546 260.417 28.8479 281.911L28.8379 281.911ZM38.3843 283.267C39.5999 284.89 39.6544 286.91 38.5021 287.777C37.3497 288.644 35.4214 288.029 34.2057 286.415C32.9901 284.802 32.9356 282.772 34.0879 281.905C35.2403 281.038 37.1686 281.653 38.3843 283.267Z" fill="#B10308" stroke="#B10308" stroke-miterlimit="10"/>
<path d="M39.3681 300.339C55.0188 296.402 53.8509 295.628 37.9754 297.616C46.5758 282.709 44.6056 282.793 34.2731 294.766C30.8026 276.476 30.4954 286.535 29.9537 294.544C16.0993 285.056 18.0171 289.582 25.2222 298.781C12.9977 300.448 11.1425 302.363 25.6064 304.642C18.393 313.283 22.9082 311.375 29.2378 307.832C28.8404 317.941 29.1633 324.272 33.8974 307.965C47.7671 319.192 51.3033 320.592 37.4244 305.404C52.4716 310.135 61.1965 312.038 39.3681 300.349L39.3681 300.339ZM30.5575 304.255C28.6594 303.53 27.554 301.847 28.0676 300.499C28.5913 299.15 30.5426 298.645 32.4307 299.381C34.3187 300.116 35.4341 301.789 34.9205 303.137C34.3968 304.486 32.4455 304.991 30.5575 304.255Z" fill="#FD900D" stroke="#FD900D" stroke-miterlimit="10"/>
<path d="M32.0424 313.51C43.1641 301.81 41.7642 301.786 29.4067 311.953C28.6932 294.751 27.0801 295.886 24.7578 311.52C12.0346 297.916 17.1611 306.589 20.9921 313.64C4.21363 313.034 8.2561 315.825 19.2655 319.755C9.83399 327.7 9.28693 330.308 22.7327 324.505C21.2625 335.671 24.0534 331.638 27.5007 325.257C32.567 334.021 36.233 339.191 31.5071 322.878C49.2316 324.946 52.9635 324.236 33.1181 318.833C48.3591 314.774 56.7574 311.727 32.0624 313.52L32.0424 313.51ZM26.6907 321.535C24.6996 321.93 22.8619 321.105 22.5757 319.684C22.2896 318.263 23.6735 316.797 25.6646 316.402C27.6557 316.008 29.4935 316.833 29.7796 318.254C30.0658 319.674 28.6818 321.141 26.6907 321.535Z" fill="#35B84B" stroke="#35B84B" stroke-miterlimit="10"/>
<path d="M25.1818 339.641C25.0581 355.781 26.1007 354.844 28.1736 338.979C40.451 351.042 40.8462 349.123 31.8614 336.109C50.4381 337.339 40.7757 334.513 33.1625 331.983C45.8224 320.947 40.9604 321.674 30.2478 326.335C31.7009 314.089 30.3171 311.805 24.4807 325.239C17.9255 316.081 18.6423 320.933 20.4834 327.948C10.7913 325.022 4.58466 323.755 19.1913 332.425C4.84254 343.026 2.59422 346.1 20.7803 336.479C12.4241 349.857 8.38253 357.826 25.1918 339.631L25.1818 339.641ZM23.5975 330.127C24.782 328.48 26.6837 327.825 27.8615 328.658C29.0392 329.501 29.0337 331.521 27.8493 333.168C26.6648 334.815 24.7631 335.47 23.5853 334.637C22.4076 333.794 22.413 331.774 23.5975 330.127Z" fill="#009CF1" stroke="#009CF1" stroke-miterlimit="10"/>
<path d="M28.6772 352.421C35.8463 337.96 34.4953 338.346 25.6991 351.713C19.9429 335.497 18.7287 337.054 21.1264 352.68C4.96136 343.446 12.4131 350.207 18.1579 355.822C1.94601 360.208 6.63205 361.681 18.3108 362.173C11.6427 372.555 11.8955 375.205 23.0213 365.685C24.9113 376.78 26.3939 372.114 27.8032 364.998C35.2346 371.868 40.2642 375.722 30.9225 361.537C48.4714 358.274 51.8262 356.493 31.2643 357.198C44.627 348.824 51.7416 343.423 28.6772 352.431L28.6772 352.421ZM25.9321 361.673C24.1495 362.638 22.1402 362.393 21.4536 361.121C20.7671 359.849 21.6519 358.042 23.4346 357.066C25.2172 356.091 27.2266 356.347 27.9131 357.619C28.5997 358.89 27.7148 360.698 25.9321 361.673Z" fill="#0144D2" stroke="#0144D2" stroke-miterlimit="10"/>
<path d="M20.2292 381.248C4.83597 386.106 6.04407 386.81 21.782 383.882C14.0804 399.271 16.041 399.067 25.6449 386.513C30.1961 404.565 29.9033 394.504 29.965 386.484C44.3617 395.133 42.1736 390.727 34.4373 381.966C46.5338 379.579 48.2792 377.564 33.703 376.134C40.3876 367.072 36.0017 369.251 29.8911 373.164C29.6884 363.044 28.9855 356.742 25.2307 373.312C10.7187 362.922 7.10188 361.742 21.8632 376.072C6.56345 372.251 -2.26281 370.857 20.2192 381.238L20.2292 381.248ZM28.7912 376.811C30.7195 377.426 31.9352 379.04 31.5015 380.419C31.0677 381.797 29.1461 382.412 27.2077 381.797C25.2794 381.182 24.0637 379.568 24.4975 378.19C24.9312 376.811 26.8529 376.196 28.7912 376.811Z" fill="#875C9F" stroke="#875C9F" stroke-miterlimit="10"/>
<path d="M29.7536 401.824C42.8079 411.319 42.6517 409.929 30.9512 399.007C47.9092 396.053 46.5731 394.609 30.7638 394.337C42.5828 379.948 34.666 386.157 28.1732 390.88C26.5784 374.165 24.3365 378.539 21.8856 389.963C12.7781 381.648 10.1186 381.441 17.6347 394.011C6.37462 394.011 10.7286 396.252 17.5116 398.841C9.48488 405.009 4.84322 409.317 20.3917 402.499C20.6535 420.339 21.8537 423.953 24.6189 403.56C30.6295 418.136 34.748 426.067 29.7536 401.814L29.7536 401.824ZM21.095 397.57C20.4402 395.649 21.0255 393.72 22.3867 393.254C23.758 392.788 25.3948 393.972 26.0496 395.894C26.7044 397.816 26.1192 399.744 24.7579 400.21C23.3867 400.677 21.7499 399.492 21.095 397.57Z" fill="#F9255B" stroke="#F9255B" stroke-miterlimit="10"/>
</g>
<g clip-path="url(#clip3_552_138)">
<path d="M30.2202 415.025C45.6253 410.215 45.0361 411.481 30.4482 418.076C45.5593 426.305 43.8324 427.253 28.7767 422.434C35.3613 439.852 29.8519 431.432 25.209 424.879C18.3384 440.2 17.6234 435.344 18.9571 423.734C7.66116 428.682 5.08583 428.024 16.2345 418.534C5.57027 414.927 10.4156 414.202 17.6678 413.924C12.0484 405.503 9.02847 399.931 21.5762 411.382C27.5476 394.565 29.8396 391.531 25.9139 411.723C36.2799 399.838 42.7246 393.654 30.2102 415.024L30.2202 415.025ZM20.6609 416.286C19.4292 417.897 19.3547 419.916 20.4984 420.795C21.6421 421.673 23.5764 421.077 24.808 419.476C26.0396 417.874 26.1142 415.845 24.9705 414.967C23.8268 414.088 21.8924 414.684 20.6609 416.286Z" fill="#B10308" stroke="#B10308" stroke-miterlimit="10"/>
<path d="M19.4978 433.348C3.88692 429.255 5.06244 428.493 20.9174 430.638C12.4653 415.646 14.4346 415.751 24.6478 427.825C28.2995 409.57 28.5069 419.632 28.9692 427.646C42.9169 418.296 40.9544 422.802 33.6584 431.93C45.8658 433.718 47.7019 435.651 33.2162 437.787C40.3435 446.498 35.8475 444.546 29.5533 440.94C29.8504 451.053 29.4648 457.38 24.8926 441.027C10.9123 452.116 7.36235 453.481 21.3912 438.431C6.29779 443.013 -2.44554 444.83 19.4977 433.358L19.4978 433.348ZM28.2692 437.351C30.1743 436.645 31.2964 434.973 30.7962 433.619C30.2859 432.265 28.3396 431.741 26.4444 432.458C24.5492 433.174 23.4172 434.836 23.9174 436.189C24.4277 437.543 26.374 438.067 28.2692 437.351Z" fill="#FD900D" stroke="#FD900D" stroke-miterlimit="10"/>
<path d="M26.6925 446.59C15.6874 434.78 17.0875 434.77 29.3436 445.059C30.2276 427.865 31.8294 429.016 33.9966 444.672C46.8541 431.195 41.6418 439.817 37.7411 446.829C54.5247 446.39 50.4548 449.141 39.4069 452.962C48.7592 460.999 49.2804 463.613 35.8928 457.676C37.2523 468.857 34.5015 464.797 31.1176 458.382C25.9647 467.095 22.2476 472.228 27.135 455.963C9.39087 457.855 5.66616 457.108 25.5642 451.902C10.3642 447.692 1.99652 444.562 26.6725 446.6L26.6925 446.59ZM31.9644 454.668C33.9515 455.082 35.7974 454.276 36.0976 452.858C36.3978 451.44 35.0285 449.96 33.0414 449.546C31.0543 449.131 29.2085 449.938 28.9082 451.356C28.608 452.774 29.9774 454.254 31.9644 454.668Z" fill="#35B84B" stroke="#35B84B" stroke-miterlimit="10"/>
<path d="M33.2938 472.788C33.2574 488.928 32.2243 487.981 30.3087 472.097C17.9123 484.038 17.5362 482.115 26.6496 469.19C8.06156 470.236 17.7515 467.506 25.3894 465.051C12.8395 453.89 17.6941 454.665 28.36 459.432C27.0283 447.172 28.4347 444.902 34.1376 458.394C40.7833 449.302 40.0184 454.146 38.1079 461.143C47.8286 458.313 54.0474 457.107 39.3556 465.632C53.5985 476.375 55.8162 479.471 37.7264 469.67C45.9496 483.13 49.9119 491.139 33.2839 472.778L33.2938 472.788ZM34.9723 463.29C33.8043 461.632 31.9091 460.958 30.7231 461.779C29.5371 462.611 29.5225 464.631 30.6906 466.289C31.8587 467.948 33.7539 468.621 34.9398 467.8C36.1258 466.968 36.1404 464.949 34.9723 463.29Z" fill="#009CF1" stroke="#009CF1" stroke-miterlimit="10"/>
<path d="M29.6718 485.532C22.6464 471.001 23.9936 471.401 32.6568 484.854C38.5735 468.696 39.7722 470.265 37.2196 485.867C53.4755 476.794 45.9571 483.48 40.1568 489.038C56.3245 493.585 51.6241 495.011 39.9411 495.387C46.5059 505.834 46.2268 508.482 35.1959 498.852C33.196 509.928 31.7598 505.248 30.4211 498.118C22.9219 504.914 17.8544 508.718 27.3362 494.626C9.82054 491.189 6.48353 489.375 27.0375 490.283C13.7585 481.777 6.69776 476.306 29.6718 485.542L29.6718 485.532ZM32.325 494.812C34.098 495.794 36.1096 495.569 36.8088 494.304C37.5079 493.039 36.641 491.223 34.8681 490.23C33.0952 489.237 31.0835 489.473 30.3843 490.738C29.6852 492.003 30.5521 493.819 32.325 494.812Z" fill="#0144D2" stroke="#0144D2" stroke-miterlimit="10"/>
<path d="M37.8436 514.442C53.1879 519.453 51.9729 520.144 36.2647 517.061C43.8134 532.526 41.855 532.301 32.3759 519.653C27.646 537.659 28.0385 527.602 28.0563 519.582C13.5746 528.087 15.8063 523.703 23.6291 515.02C11.5569 512.512 9.83147 510.48 24.4211 509.195C17.8267 500.067 22.1908 502.289 28.2623 506.263C28.5653 496.145 29.3307 489.85 32.9211 506.456C47.5353 496.211 51.1637 495.068 36.261 509.25C51.5979 505.581 60.4375 504.275 37.8537 514.432L37.8436 514.442ZM29.326 509.92C27.3917 510.517 26.1601 512.118 26.5801 513.501C27.0002 514.884 28.9156 515.518 30.86 514.922C32.7943 514.326 34.0259 512.724 33.6059 511.341C33.1858 509.958 31.2704 509.324 29.326 509.92Z" fill="#875C9F" stroke="#875C9F" stroke-miterlimit="10"/>
<path d="M28.1157 534.922C14.9679 544.288 15.1379 542.899 26.9461 532.094C10.0182 528.972 11.3685 527.541 27.1797 527.425C15.504 512.921 23.3589 519.208 29.8046 523.994C31.565 507.296 33.7633 511.692 36.1009 523.14C45.2904 514.916 47.9518 514.735 40.3115 527.23C51.571 527.341 47.195 529.54 40.3867 532.061C48.3518 538.308 52.9506 542.662 37.4704 535.69C37.0318 553.527 35.7958 557.128 33.233 536.709C27.0782 551.225 22.8812 559.115 28.1158 534.912L28.1157 534.922ZM36.816 530.755C37.4898 528.84 36.9237 526.906 35.5672 526.426C34.2006 525.946 32.5521 527.114 31.8783 529.029C31.2045 530.944 31.7706 532.879 33.1271 533.358C34.4937 533.838 36.1422 532.67 36.816 530.755Z" fill="#F9255B" stroke="#F9255B" stroke-miterlimit="10"/>
</g>
<g clip-path="url(#clip4_552_138)">
<path d="M25.8379 547.911C10.4813 542.949 11.0578 544.221 25.5797 550.96C10.3877 559.039 12.1051 560.004 27.2078 555.334C20.4509 572.686 26.0435 564.321 30.7511 557.814C37.4695 573.202 38.2327 568.354 37.0141 556.731C48.2604 561.791 50.8422 561.158 39.7881 551.558C50.4876 548.057 45.6497 547.284 38.4006 546.935C44.1032 538.57 47.1782 533.028 34.5176 544.354C28.7132 527.478 26.4514 524.422 30.1767 544.652C19.9291 532.665 13.546 526.417 25.8479 547.911L25.8379 547.911ZM35.3843 549.267C36.5999 550.89 36.6544 552.91 35.5021 553.777C34.3497 554.644 32.4214 554.029 31.2057 552.415C29.9901 550.802 29.9356 548.772 31.0879 547.905C32.2403 547.038 34.1686 547.653 35.3843 549.267Z" fill="#B10308" stroke="#B10308" stroke-miterlimit="10"/>
<path d="M36.3681 566.339C52.0188 562.402 50.8509 561.628 34.9754 563.616C43.5758 548.709 41.6056 548.793 31.2731 560.766C27.8026 542.476 27.4954 552.535 26.9537 560.544C13.0993 551.056 15.0171 555.582 22.2222 564.781C9.99769 566.448 8.14251 568.363 22.6064 570.642C15.393 579.283 19.9082 577.375 26.2378 573.832C25.8404 583.941 26.1633 590.272 30.8974 573.965C44.7671 585.192 48.3033 586.592 34.4244 571.404C49.4716 576.135 58.1965 578.038 36.3681 566.349L36.3681 566.339ZM27.5575 570.255C25.6594 569.53 24.554 567.847 25.0676 566.499C25.5913 565.15 27.5426 564.645 29.4307 565.381C31.3187 566.116 32.4341 567.789 31.9205 569.137C31.3968 570.486 29.4455 570.991 27.5575 570.255Z" fill="#FD900D" stroke="#FD900D" stroke-miterlimit="10"/>
<path d="M29.0424 579.51C40.1641 567.81 38.7642 567.786 26.4067 577.953C25.6932 560.751 24.0801 561.886 21.7578 577.52C9.03455 563.916 14.1611 572.589 17.9921 579.64C1.21363 579.034 5.2561 581.825 16.2655 585.755C6.83399 593.7 6.28693 596.308 19.7327 590.505C18.2625 601.671 21.0534 597.638 24.5007 591.257C29.567 600.021 33.233 605.191 28.5071 588.878C46.2316 590.946 49.9635 590.236 30.1181 584.833C45.3591 580.774 53.7574 577.727 29.0624 579.52L29.0424 579.51ZM23.6907 587.535C21.6996 587.93 19.8619 587.105 19.5757 585.684C19.2896 584.263 20.6735 582.797 22.6646 582.402C24.6557 582.008 26.4935 582.833 26.7796 584.254C27.0658 585.674 25.6818 587.141 23.6907 587.535Z" fill="#35B84B" stroke="#35B84B" stroke-miterlimit="10"/>
<path d="M22.1818 605.641C22.0581 621.781 23.1007 620.844 25.1736 604.979C37.451 617.042 37.8462 615.123 28.8614 602.109C47.4381 603.339 37.7757 600.513 30.1625 597.983C42.8224 586.947 37.9604 587.674 27.2478 592.335C28.7009 580.089 27.3171 577.805 21.4807 591.239C14.9255 582.081 15.6423 586.933 17.4834 593.948C7.79126 591.022 1.58466 589.755 16.1913 598.425C1.84254 609.026 -0.405781 612.1 17.7803 602.479C9.42409 615.857 5.38253 623.826 22.1918 605.631L22.1818 605.641ZM20.5975 596.127C21.782 594.48 23.6837 593.825 24.8615 594.658C26.0392 595.501 26.0337 597.521 24.8493 599.168C23.6648 600.815 21.7631 601.47 20.5853 600.637C19.4076 599.794 19.413 597.774 20.5975 596.127Z" fill="#009CF1" stroke="#009CF1" stroke-miterlimit="10"/>
<path d="M25.6772 618.421C32.8463 603.96 31.4953 604.346 22.6991 617.713C16.9429 601.497 15.7287 603.054 18.1264 618.68C1.96136 609.446 9.41311 616.207 15.1579 621.822C-1.05399 626.208 3.63205 627.681 15.3108 628.173C8.64266 638.555 8.89549 641.205 20.0213 631.685C21.9113 642.78 23.3939 638.114 24.8032 630.998C32.2346 637.868 37.2642 641.722 27.9225 627.537C45.4714 624.274 48.8262 622.493 28.2643 623.198C41.627 614.824 48.7416 609.423 25.6772 618.431L25.6772 618.421ZM22.9321 627.673C21.1495 628.638 19.1402 628.393 18.4536 627.121C17.7671 625.849 18.6519 624.042 20.4346 623.066C22.2172 622.091 24.2266 622.347 24.9131 623.619C25.5997 624.89 24.7148 626.698 22.9321 627.673Z" fill="#0144D2" stroke="#0144D2" stroke-miterlimit="10"/>
<path d="M17.2292 647.248C1.83597 652.106 3.04407 652.81 18.782 649.882C11.0804 665.271 13.041 665.067 22.6449 652.513C27.1961 670.565 26.9033 660.504 26.965 652.484C41.3617 661.133 39.1736 656.727 31.4373 647.966C43.5338 645.579 45.2792 643.564 30.703 642.134C37.3876 633.072 33.0017 635.251 26.8911 639.164C26.6884 629.044 25.9855 622.742 22.2307 639.312C7.7187 628.922 4.10188 627.742 18.8632 642.072C3.56345 638.251 -5.26281 636.857 17.2192 647.238L17.2292 647.248ZM25.7912 642.811C27.7195 643.426 28.9352 645.04 28.5015 646.419C28.0677 647.797 26.1461 648.412 24.2077 647.797C22.2794 647.182 21.0637 645.568 21.4975 644.19C21.9312 642.811 23.8529 642.196 25.7912 642.811Z" fill="#875C9F" stroke="#875C9F" stroke-miterlimit="10"/>
<path d="M26.7536 667.824C39.8079 677.319 39.6517 675.929 27.9512 665.007C44.9092 662.053 43.5731 660.609 27.7638 660.337C39.5828 645.948 31.666 652.157 25.1732 656.88C23.5784 640.165 21.3365 644.539 18.8856 655.963C9.77808 647.648 7.11863 647.441 14.6347 660.011C3.37462 660.011 7.72857 662.252 14.5116 664.841C6.48488 671.009 1.84322 675.317 17.3917 668.499C17.6535 686.339 18.8537 689.953 21.6189 669.56C27.6295 684.136 31.748 692.067 26.7536 667.814L26.7536 667.824ZM18.095 663.57C17.4402 661.649 18.0255 659.72 19.3867 659.254C20.758 658.788 22.3948 659.972 23.0496 661.894C23.7044 663.816 23.1192 665.744 21.7579 666.21C20.3867 666.677 18.7499 665.492 18.095 663.57Z" fill="#F9255B" stroke="#F9255B" stroke-miterlimit="10"/>
</g>
<defs>
<clipPath id="clip0_552_138">
<rect width="153.89" height="46.71" fill="white" transform="translate(48.1261 0.126343) rotate(90.155)"/>
</clipPath>
<clipPath id="clip1_552_138">
<rect width="153.89" height="46.71" fill="white" transform="translate(47.8183 133.337) rotate(90.4131)"/>
</clipPath>
<clipPath id="clip2_552_138">
<rect width="153.89" height="46.71" fill="white" transform="translate(53.1261 264.126) rotate(90.155)"/>
</clipPath>
<clipPath id="clip3_552_138">
<rect width="153.89" height="46.71" fill="white" transform="translate(52.8183 397.337) rotate(90.4131)"/>
</clipPath>
<clipPath id="clip4_552_138">
<rect width="153.89" height="46.71" fill="white" transform="translate(50.1261 530.126) rotate(90.155)"/>
</clipPath>
</defs>
</svg>
