<svg width="56" height="62" viewBox="0 0 56 62" fill="none" xmlns="http://www.w3.org/2000/svg">
<g clip-path="url(#clip0_552_78)">
<path d="M35.6993 3.98853C25.7785 7.99748 22.2837 16.0415 20.4189 23.2807C20.2981 23.7508 20.0821 24.2007 19.7419 24.5478C18.3381 25.9777 15.9261 25.9971 14.3546 25.0521C11.1256 22.4547 10.0203 23.5214 8.76389 25.3913C8.74636 25.4195 8.70182 25.4472 8.67008 25.4564L4.041 26.5077C3.91875 26.5346 3.90504 26.7031 4.02351 26.7505L7.88347 28.2856C7.93466 28.3065 7.97542 28.3531 7.98775 28.4094C8.74797 31.8326 10.4138 32.8762 13.0393 31.3979C13.0909 31.3678 13.1492 31.4101 13.2051 31.3976C15.1498 30.9984 16.9365 31.715 18.4679 33.6596C18.9641 34.2887 19.2472 35.0614 19.3099 35.8608C20.2516 47.6991 25.3584 55.0502 33.4515 59.1887C33.5524 59.2405 33.6695 59.1548 33.6552 59.0403C32.5606 51.3138 34.9047 44.6571 34.1848 38.7521C39.0069 41.3776 44.2591 43.2837 49.5085 45.186C49.6502 45.2367 49.8023 45.1663 49.8123 45.0484C50.4634 36.9899 50.3095 29.4068 49.1363 22.4256C49.1197 22.3278 49.0017 22.2532 48.879 22.2596C43.9148 22.524 39.3064 22.8797 35.798 23.5207C36.1042 21.2402 35.34 14.1908 35.9448 4.16643C35.9528 4.03808 35.8211 3.94104 35.7026 3.989L35.6993 3.98853Z" fill="#875C9F"/>
</g>
<defs>
<clipPath id="clip0_552_78">
<rect width="55" height="48" fill="white" transform="translate(0 54.4561) rotate(-81.9359)"/>
</clipPath>
</defs>
</svg>
