<svg width="42" height="46" viewBox="0 0 42 46" fill="none" xmlns="http://www.w3.org/2000/svg">
<g clip-path="url(#clip0_552_85)">
<path d="M41.937 8.67306C41.9027 7.31613 38.0502 5.35988 33.3848 6.78466C30.9118 11.3247 28.3931 15.8931 26.5155 14.1347C25.0214 10.3466 20.0354 6.66593 13.2692 5.29204C12.817 2.29548 10.2124 0 7.05248 0C3.57776 0 0.75563 2.78171 0.75563 6.21927C0.75563 8.15855 1.65436 9.88864 3.06257 11.0307C-5.99917 23.0226 6.92082 31.4469 17.6426 32.9169V41.8387H16.3089L16.9729 46L17.6369 44.1229L18.6902 46L19.6405 44.1003L20.2988 46L20.9971 41.8387H19.36V33.0922C24.8554 33.4653 29.3777 31.8596 29.3777 27.7662L38.5367 26.5733L34.335 22.4346C39.7675 17.0747 42.4637 12.4442 41.937 8.67306ZM8.19736 7.67232L10.1608 6.21927L11.632 9.6116L8.19736 7.67232Z" fill="#B10308"/>
</g>
<defs>
<clipPath id="clip0_552_85">
<rect width="42" height="46" fill="white"/>
</clipPath>
</defs>
</svg>
