<svg width="71" height="81" viewBox="0 0 71 81" fill="none" xmlns="http://www.w3.org/2000/svg">
<g clip-path="url(#clip0_552_37)">
<path d="M21.7843 47.1411C21.2369 46.9557 20.7576 46.6192 20.3936 46.1822C19.9128 45.6032 19.4294 45.0669 18.9607 44.5597C18.5207 45.3783 17.7753 45.943 16.8842 46.0164C15.3539 46.1424 13.9966 44.7623 13.8458 42.9312C13.7828 42.1661 13.9403 41.4497 14.2629 40.8591C11.2194 39.5148 8.59735 40.883 6.61404 46.4013C7.34005 46.8024 7.97231 47.4175 8.39672 48.2134C9.49517 50.2819 8.79735 52.7773 6.83876 53.7876C5.47954 54.4878 3.87283 54.2866 2.64373 53.4114C2.35541 53.8172 2.11924 54.2551 1.94799 54.7301C1.19116 56.8847 1.66403 58.7197 3.51875 60.2044C4.33369 60.8589 5.44894 61.0279 6.43965 60.6612C7.75477 60.1769 9.80092 59.5536 12.0648 58.8698C11.5977 62.8139 11.8459 67.3297 12.9503 72.5512C13.182 73.6359 14.1409 74.4605 15.271 74.4342C16.8767 74.3989 18.3838 73.7654 19.7545 72.379C20.2458 71.8837 20.6427 71.293 20.9244 70.6573C22.1138 67.9698 21.2879 66.8067 20.7973 65.2825C20.3565 63.9118 19.6933 62.6201 18.8597 61.4395C17.76 59.8805 17.297 58.542 17.1585 57.3102C17.4296 57.2212 17.7073 57.1376 17.9722 57.0491C17.0213 56.6968 16.1601 55.9309 15.6519 54.869C14.7109 52.9088 15.3255 50.681 17.0178 49.8927C18.7106 49.1105 20.8493 50.0623 21.7904 52.0225C22.4034 53.3062 22.3506 54.6933 21.7739 55.7293C23.9691 54.8875 25.495 54.1068 25.5309 53.4914C26.5055 50.3 25.0941 48.2633 21.7715 47.1361L21.7843 47.1411Z" fill="#B10308" stroke="#B10308" stroke-miterlimit="10"/>
<path d="M2.64425 53.4175C3.18183 52.6576 3.89626 52.0166 4.69336 51.4779C5.19758 51.1392 5.51731 50.6641 5.65157 50.0406C5.80397 49.3367 5.91185 48.6182 6.1149 47.9283C6.27455 47.3876 6.44331 46.8825 6.62021 46.4009" stroke="#B10308" stroke-miterlimit="10"/>
<path d="M21.7862 55.7283L17.9845 57.0481C19.3584 56.6014 20.6647 56.1603 21.7862 55.7283Z" stroke="#B10308" stroke-miterlimit="10"/>
<path d="M14.2629 40.8591C18.1592 42.867 18.5812 44.3848 18.9607 44.5597" stroke="#B10308" stroke-miterlimit="10"/>
</g>
<g clip-path="url(#clip1_552_37)">
<path d="M50.5919 21.9421C49.8552 21.3271 49.2995 20.4504 48.9708 19.4325C48.5374 18.0845 48.078 16.8181 47.6262 15.615C46.5373 16.9988 45.1145 17.7474 43.7226 17.4743C41.3323 17.0055 39.9782 13.6938 40.6892 10.0691C40.9862 8.55483 41.5935 7.23762 42.387 6.24172C38.452 2.21332 33.7647 3.6465 27.9173 13.433C28.8147 14.5501 29.4597 16.0387 29.6961 17.7814C30.3034 22.3086 27.9616 26.8269 24.4664 27.8748C22.0413 28.6002 19.7029 27.4605 18.2843 25.1887C17.6378 25.8419 17.0541 26.5818 16.5499 27.424C14.2935 31.2532 14.07 35.0355 16.1263 38.782C17.0287 40.4325 18.6368 41.2804 20.3307 41.0307C22.578 40.7038 26.0076 40.4479 29.7991 40.1763C27.0642 47.614 25.1227 56.495 24.1203 67.1452C23.9154 69.3586 24.9492 71.4063 26.6802 71.8821C29.1386 72.5624 31.7541 72.0354 34.5491 69.9834C35.5501 69.251 36.4564 68.2897 37.211 67.1871C40.3984 62.5251 39.7404 59.8824 39.7775 56.6951C39.8113 53.829 39.4666 51.0126 38.8061 48.3323C37.9351 44.7935 37.9189 41.9795 38.3407 39.5239C38.7984 39.4775 39.2634 39.4449 39.7115 39.3966C38.4472 38.2694 37.5317 36.3811 37.3046 34.083C36.8809 29.8394 38.9589 25.8018 41.9354 25.0608C44.9095 24.3317 47.6711 27.1765 48.0948 31.42C48.3674 34.1975 47.5749 36.8653 46.1666 38.6073C49.9349 37.9968 52.6545 37.193 53.0251 36.0151C56.1449 30.275 55.0457 25.6637 50.575 21.9264L50.5919 21.9421Z" fill="#B10308" stroke="#B10308" stroke-miterlimit="10"/>
<path d="M18.282 25.2006C19.4891 23.9763 20.904 23.0652 22.3919 22.3912C23.3321 21.9689 24.0619 21.1958 24.5861 20.048C25.1791 18.7527 25.712 17.4085 26.3748 16.1641C26.895 15.1889 27.4108 14.2871 27.9269 13.4349" stroke="#B10308" stroke-miterlimit="10"/>
<path d="M46.1858 38.6111L39.7307 39.4003C42.048 39.1738 44.2597 38.9267 46.1858 38.6111Z" stroke="#B10308" stroke-miterlimit="10"/>
<path d="M42.387 6.2417C47.2774 11.9557 47.1394 15.0985 47.6262 15.615" stroke="#B10308" stroke-miterlimit="10"/>
</g>
<g clip-path="url(#clip2_552_37)">
<path d="M64.9122 50.7061C64.445 50.3375 64.0937 49.8338 63.8874 49.2628C63.6153 48.5067 63.3266 47.7941 63.0424 47.1165C62.3451 47.8255 61.4371 48.1726 60.5517 47.9624C59.0313 47.6015 58.1787 45.7313 58.6419 43.7804C58.8354 42.9653 59.2259 42.2716 59.734 41.7617C57.2404 39.3867 54.252 39.9653 50.5008 45.061C51.0689 45.7111 51.4753 46.5533 51.6207 47.5166C51.9942 50.0188 50.4902 52.387 48.2619 52.8071C46.7158 53.0977 45.2303 52.3721 44.3337 51.0678C43.9202 51.3967 43.5464 51.7758 43.223 52.2142C41.7754 54.2094 41.6221 56.2679 42.9204 58.4066C43.4901 59.3486 44.5115 59.8826 45.5906 59.8201C47.0223 59.7397 49.2066 59.7498 51.6213 59.7672C49.8585 63.7146 48.5967 68.4861 47.9276 74.266C47.7907 75.4673 48.443 76.6323 49.5436 76.9682C51.1069 77.4478 52.7736 77.274 54.559 76.2742C55.1984 75.9176 55.7782 75.4315 56.2618 74.8616C58.3046 72.4518 57.8934 70.978 57.9262 69.2367C57.9561 67.6709 57.7448 66.1157 57.332 64.6212C56.7878 62.648 56.7856 61.1085 57.0613 59.7842C57.3529 59.7788 57.649 59.7813 57.9344 59.7745C57.1328 59.1029 56.5554 58.0302 56.4174 56.7636C56.16 54.4246 57.4947 52.3077 59.3918 52.0327C61.2875 51.7641 63.0374 53.4405 63.2949 55.7796C63.4604 57.3103 62.9481 58.7344 62.0464 59.6254C64.4473 59.4564 66.1811 59.1359 66.4205 58.508C68.4234 55.5056 67.7369 52.936 64.9015 50.6968L64.9122 50.7061Z" fill="#B10308" stroke="#B10308" stroke-miterlimit="10"/>
<path d="M44.3322 51.0742C45.1043 50.4575 46.0078 50.0212 46.957 49.7178C47.5568 49.528 48.0237 49.1371 48.3608 48.5324C48.7421 47.8501 49.0852 47.1384 49.5108 46.4869C49.8449 45.9764 50.1759 45.5059 50.5069 45.0624" stroke="#B10308" stroke-miterlimit="10"/>
<path d="M62.0587 59.6283L57.9467 59.7775C59.4227 59.755 60.8315 59.7166 62.0587 59.6283Z" stroke="#B10308" stroke-miterlimit="10"/>
<path d="M59.7339 41.7617C62.8309 45.1003 62.7339 46.8128 63.0424 47.1165" stroke="#B10308" stroke-miterlimit="10"/>
</g>
<defs>
<clipPath id="clip0_552_37">
<rect width="25.2144" height="34.8198" fill="white" transform="translate(0 41.0696) rotate(-4.7082)"/>
</clipPath>
<clipPath id="clip1_552_37">
<rect width="40" height="70" fill="white" transform="translate(20.6035) rotate(11.098)"/>
</clipPath>
<clipPath id="clip2_552_37">
<rect width="25.6619" height="38" fill="white" transform="translate(45.8833 37.3955) rotate(13.3554)"/>
</clipPath>
</defs>
</svg>
