<svg width="52" height="685" viewBox="0 0 52 685" fill="none" xmlns="http://www.w3.org/2000/svg">
<g clip-path="url(#clip0_552_180)">
<path d="M28.6674 17.9108C43.6986 12.9492 43.1342 14.2208 28.9202 20.9601C43.7901 29.039 42.1091 30.0037 27.3266 25.3345C33.9403 42.6863 28.4662 34.3214 23.8583 27.8141C17.2823 43.2023 16.5354 38.3544 17.7281 26.731C6.72017 31.7915 4.19317 31.1584 15.0129 21.5585C4.54022 18.0574 9.2756 17.2843 16.371 16.9347C10.7893 8.57012 7.77944 3.02842 20.1718 14.3542C25.8531 -2.52155 28.0669 -5.57768 24.4206 14.6525C34.451 2.66471 40.6988 -3.58258 28.6577 17.9108L28.6674 17.9108ZM19.3234 19.2666C18.1336 20.8899 18.0802 22.91 19.2081 23.7769C20.336 24.6438 22.2235 24.0286 23.4134 22.4153C24.6033 20.802 24.6566 18.7718 23.5287 17.905C22.4008 17.0381 20.5133 17.6533 19.3234 19.2666Z" fill="#B10308" stroke="#B10308" stroke-miterlimit="10"/>
<path d="M18.3604 36.3393C3.04145 32.4016 4.18461 31.6285 19.7236 33.6155C11.3055 18.7087 13.234 18.7934 23.3474 30.7655C26.7444 12.4761 27.0451 22.5353 27.5752 30.5438C41.136 21.0563 39.2589 25.5815 32.2064 34.781C44.1719 36.448 45.9877 38.363 31.8304 40.6421C38.8909 49.2826 34.4715 47.3748 28.276 43.8319C28.6649 53.9409 28.3489 60.2718 23.7151 43.9645C10.1394 55.1921 6.67815 56.5917 20.2629 41.4041C5.53462 46.1348 -3.00533 48.0384 18.3605 36.3493L18.3604 36.3393ZM26.9843 40.2555C28.8421 39.5304 29.9241 37.8474 29.4214 36.4987C28.9088 35.1502 26.9988 34.6454 25.1508 35.3805C23.3028 36.1157 22.211 37.7887 22.7137 39.1373C23.2263 40.4859 25.1363 40.9906 26.9843 40.2555Z" fill="#FD900D" stroke="#FD900D" stroke-miterlimit="10"/>
<path d="M25.5308 49.5094C14.6449 37.8095 16.0151 37.7857 28.1108 47.9523C28.8091 30.7503 30.388 31.886 32.6611 47.5197C45.1146 33.9153 40.0967 42.5892 36.347 49.6396C52.7698 49.0342 48.813 51.8251 38.0369 55.7549C47.2686 63.6994 47.804 66.308 34.6433 60.5043C36.0823 71.6704 33.3506 67.6379 29.9763 61.2572C25.0174 70.0209 21.4291 75.1909 26.0548 58.878C8.70603 60.946 5.0532 60.2361 24.478 54.8324C9.56003 50.7736 1.33976 47.7263 25.5113 49.5195L25.5308 49.5094ZM30.7691 57.535C32.718 57.9296 34.5168 57.1046 34.7969 55.6839C35.077 54.2631 33.7224 52.7968 31.7735 52.4022C29.8246 52.0076 28.0258 52.8326 27.7457 54.2533C27.4656 55.6741 28.8202 57.1404 30.7691 57.535Z" fill="#35B84B" stroke="#35B84B" stroke-miterlimit="10"/>
<path d="M32.2461 75.641C32.3671 91.7808 31.3467 90.8436 29.3177 74.9791C17.3005 87.0424 16.9137 85.1235 25.7081 72.1091C7.5251 73.3394 16.9827 70.5132 24.4345 67.9826C12.0429 56.9468 16.8019 57.6737 27.2875 62.3347C25.8651 50.0886 27.2196 47.8048 32.9323 61.2391C39.3486 52.0813 38.6469 56.9333 36.8449 63.9483C46.3316 61.0221 52.4066 59.7553 38.1096 68.4248C52.1542 79.0261 54.3549 82.1 36.5543 72.4791C44.7334 85.8566 48.6893 93.8257 32.2363 75.6311L32.2461 75.641ZM33.7968 66.1267C32.6374 64.4799 30.776 63.8251 29.6232 64.6583C28.4704 65.5014 28.4758 67.5214 29.6351 69.1682C30.7945 70.815 32.6559 71.4699 33.8087 70.6367C34.9615 69.7935 34.9561 67.7735 33.7968 66.1267Z" fill="#009CF1" stroke="#009CF1" stroke-miterlimit="10"/>
<path d="M28.8248 88.4206C21.8076 73.9599 23.13 74.3462 31.7397 87.7125C37.3739 71.4969 38.5624 73.0536 36.2154 88.6801C52.0379 79.4464 44.7441 86.2066 39.121 91.8221C54.9893 96.2083 50.4026 97.681 38.9715 98.1726C45.4982 108.555 45.2508 111.205 34.3608 101.685C32.5108 112.78 31.0596 108.114 29.6803 100.998C22.4063 107.868 17.4833 111.722 26.627 97.5367C9.45008 94.2741 6.16636 92.4932 26.2925 93.1976C13.213 84.8237 6.24921 79.4229 28.8248 88.4306L28.8248 88.4206ZM31.5116 97.6732C33.2564 98.6384 35.2232 98.3929 35.8952 97.1211C36.5672 95.8492 35.7011 94.0416 33.9562 93.0664C32.2114 92.0912 30.2446 92.3466 29.5726 93.6185C28.9006 94.8904 29.7668 96.698 31.5116 97.6732Z" fill="#0144D2" stroke="#0144D2" stroke-miterlimit="10"/>
<path d="M37.0937 117.248C52.1606 122.106 50.9781 122.809 35.5737 119.882C43.1121 135.271 41.1931 135.067 31.7927 122.512C27.3379 140.565 27.6245 130.504 27.5641 122.484C13.4726 131.133 15.6143 126.727 23.1867 117.966C11.3466 115.579 9.63813 113.564 23.9054 112.134C17.3625 103.072 21.6555 105.25 27.6365 109.164C27.8349 99.0433 28.5229 92.7414 32.1982 109.311C46.4025 98.922 49.9427 97.7422 35.4943 112.072C50.4697 108.251 59.1089 106.857 37.1034 117.238L37.0937 117.248ZM28.7131 112.811C26.8256 113.426 25.6358 115.039 26.0603 116.418C26.4848 117.797 28.3658 118.412 30.263 117.797C32.1505 117.181 33.3404 115.568 32.9158 114.189C32.4913 112.81 30.6104 112.196 28.7131 112.811Z" fill="#875C9F" stroke="#875C9F" stroke-miterlimit="10"/>
<path d="M27.7712 137.824C14.9935 147.319 15.1464 145.929 26.5989 135.007C10.0003 132.053 11.3081 130.609 26.7823 130.336C15.2139 115.948 22.9629 122.157 29.3181 126.879C30.8791 110.165 33.0734 114.539 35.4723 125.962C44.3868 117.648 46.9899 117.44 39.6332 130.011C50.6546 130.01 46.3929 132.252 39.7537 134.84C47.6102 141.009 52.1535 145.316 36.9346 138.498C36.6784 156.339 35.5036 159.952 32.797 139.56C26.9138 154.136 22.8826 162.067 27.7711 137.814L27.7712 137.824ZM36.2462 133.57C36.8871 131.648 36.3143 129.72 34.9819 129.254C33.6397 128.787 32.0376 129.972 31.3966 131.894C30.7557 133.815 31.3285 135.744 32.6609 136.21C34.0031 136.676 35.6052 135.492 36.2462 133.57Z" fill="#F9255B" stroke="#F9255B" stroke-miterlimit="10"/>
</g>
<g clip-path="url(#clip1_552_180)">
<path d="M27.3144 151.025C12.2359 146.215 12.8125 147.481 27.0912 154.076C12.3005 162.305 13.9907 163.253 28.7273 158.434C22.2822 175.852 27.6749 167.432 32.2194 160.879C38.9444 176.2 39.6442 171.344 38.3388 159.734C49.3953 164.682 51.916 164.024 41.0036 154.534C51.4419 150.927 46.6992 150.202 39.6007 149.924C45.1011 141.503 48.057 135.931 35.7751 147.382C29.9303 130.565 27.687 127.531 31.5294 147.723C21.3832 135.838 15.075 129.654 27.3242 151.024L27.3144 151.025ZM36.6711 152.286C37.8767 153.897 37.9497 155.916 36.8302 156.795C35.7107 157.673 33.8174 157.077 32.6119 155.476C31.4064 153.874 31.3334 151.845 32.4528 150.967C33.5723 150.088 35.4657 150.684 36.6711 152.286Z" fill="#B10308" stroke="#B10308" stroke-miterlimit="10"/>
<path d="M37.8095 169.348C53.0895 165.255 51.9389 164.493 36.42 166.638C44.693 151.646 42.7654 151.751 32.7687 163.825C29.1944 145.57 28.9913 155.632 28.5389 163.646C14.8867 154.296 16.8077 158.802 23.949 167.93C12.0004 169.718 10.2032 171.651 24.3819 173.787C17.4056 182.498 21.8063 180.546 27.9671 176.94C27.6763 187.053 28.0537 193.38 32.529 177.027C46.213 188.116 49.6877 189.481 35.9562 174.431C50.7297 179.013 59.2877 180.83 37.8096 169.358L37.8095 169.348ZM29.224 173.351C27.3593 172.645 26.261 170.973 26.7506 169.619C27.2501 168.265 29.1551 167.741 31.0101 168.458C32.8652 169.174 33.9732 170.836 33.4835 172.189C32.9841 173.543 31.0791 174.067 29.224 173.351Z" fill="#FD900D" stroke="#FD900D" stroke-miterlimit="10"/>
<path d="M30.7673 182.59C41.5392 170.78 40.1687 170.77 28.1724 181.059C27.3071 163.865 25.7393 165.016 23.6181 180.672C11.0331 167.195 16.1349 175.817 19.9529 182.829C3.52506 182.39 7.50874 185.141 18.3224 188.962C9.16833 196.999 8.65821 199.613 21.762 193.676C20.4314 204.857 23.1239 200.797 26.436 194.382C31.4797 203.095 35.118 208.228 30.3342 191.963C47.7022 193.855 51.348 193.108 31.8717 187.902C46.7496 183.692 54.9399 180.562 30.7869 182.6L30.7673 182.59ZM25.6071 190.668C23.6622 191.082 21.8555 190.276 21.5616 188.858C21.2677 187.44 22.6081 185.96 24.553 185.546C26.498 185.131 28.3047 185.938 28.5986 187.356C28.8924 188.774 27.5521 190.254 25.6071 190.668Z" fill="#35B84B" stroke="#35B84B" stroke-miterlimit="10"/>
<path d="M24.3059 208.788C24.3415 224.928 25.3528 223.981 27.2277 208.097C39.3614 220.038 39.7296 218.115 30.8093 205.19C49.0033 206.236 39.5188 203.506 32.0428 201.051C44.3266 189.89 39.575 190.665 29.1352 195.432C30.4386 183.172 29.062 180.902 23.48 194.394C16.9751 185.302 17.7239 190.146 19.5939 197.143C10.0792 194.313 3.9922 193.107 18.3726 201.632C4.43161 212.375 2.26088 215.471 19.9673 205.67C11.9184 219.13 8.04 227.139 24.3156 208.778L24.3059 208.788ZM22.663 199.29C23.8063 197.632 25.6613 196.958 26.8221 197.779C27.983 198.611 27.9972 200.631 26.8539 202.289C25.7106 203.948 23.8556 204.621 22.6948 203.8C21.5339 202.968 21.5196 200.949 22.663 199.29Z" fill="#009CF1" stroke="#009CF1" stroke-miterlimit="10"/>
<path d="M27.8511 221.532C34.7276 207.001 33.409 207.401 24.9294 220.854C19.1381 204.696 17.9648 206.265 20.4633 221.867C4.55199 212.794 11.911 219.48 17.5883 225.038C1.76337 229.585 6.36414 231.011 17.7995 231.387C11.3738 241.834 11.647 244.482 22.4441 234.852C24.4016 245.928 25.8074 241.248 27.1177 234.118C34.4579 240.914 39.4181 244.718 30.1372 230.626C47.2816 227.189 50.5479 225.375 30.4296 226.283C43.4271 217.777 50.3382 212.306 27.8511 221.542L27.8511 221.532ZM25.2541 230.812C23.5188 231.794 21.5497 231.569 20.8654 230.304C20.1811 229.039 21.0296 227.223 22.765 226.23C24.5003 225.237 26.4694 225.473 27.1537 226.738C27.838 228.003 26.9895 229.819 25.2541 230.812Z" fill="#0144D2" stroke="#0144D2" stroke-miterlimit="10"/>
<path d="M19.8525 250.442C4.83347 255.453 6.02273 256.144 21.398 253.061C14.0093 268.526 15.9262 268.301 25.2043 255.653C29.834 273.659 29.4498 263.602 29.4324 255.582C43.6071 264.087 41.4227 259.703 33.7657 251.02C45.5821 248.512 47.2709 246.48 32.9905 245.195C39.4451 236.067 35.1735 238.289 29.2307 242.263C28.9342 232.145 28.185 225.85 24.6707 242.456C10.3662 232.211 6.81481 231.068 21.4016 245.25C6.3898 241.581 -2.26249 240.275 19.8426 250.432L19.8525 250.442ZM28.1896 245.92C30.0829 246.517 31.2884 248.118 30.8773 249.501C30.4661 250.884 28.5913 251.518 26.6881 250.922C24.7948 250.326 23.5893 248.724 24.0004 247.341C24.4116 245.958 26.2865 245.324 28.1896 245.92Z" fill="#875C9F" stroke="#875C9F" stroke-miterlimit="10"/>
<path d="M29.3743 270.922C42.2435 280.288 42.077 278.899 30.5191 268.094C47.0883 264.972 45.7665 263.541 30.2904 263.425C41.7187 248.921 34.0303 255.208 27.7212 259.994C25.9981 243.296 23.8464 247.692 21.5584 259.14C12.5636 250.916 9.95866 250.735 17.437 263.23C6.41616 263.341 10.6994 265.54 17.3634 268.061C9.56708 274.308 5.06583 278.662 20.2178 271.69C20.6472 289.527 21.857 293.128 24.3655 272.709C30.3899 287.225 34.4979 295.115 29.3742 270.912L29.3743 270.922ZM20.8584 266.755C20.1989 264.84 20.7529 262.906 22.0808 262.426C23.4184 261.946 25.0319 263.114 25.6914 265.029C26.351 266.944 25.7969 268.879 24.4691 269.358C23.1315 269.838 21.518 268.67 20.8584 266.755Z" fill="#F9255B" stroke="#F9255B" stroke-miterlimit="10"/>
</g>
<g clip-path="url(#clip2_552_180)">
<path d="M23.7758 281.914C38.8063 276.955 38.2421 278.226 24.029 284.963C38.9 293.044 37.2192 294.009 22.436 289.338C29.0521 306.69 23.5768 298.325 18.9681 291.817C12.3942 307.204 11.6466 302.356 12.8377 290.733C1.83043 295.792 -0.69666 295.158 10.1218 285.56C-0.351393 282.057 4.38389 281.285 11.4793 280.936C5.89636 272.571 2.88578 267.029 15.2797 278.356C20.9587 261.481 23.1721 258.426 19.5285 278.655C29.5573 266.669 35.8043 260.422 23.766 281.914L23.7758 281.914ZM14.432 283.269C13.2424 284.892 13.1893 286.912 14.3173 287.779C15.4453 288.646 17.3327 288.031 18.5224 286.418C19.712 284.805 19.7651 282.775 18.6371 281.908C17.509 281.04 15.6216 281.655 14.432 283.269Z" fill="#B10308" stroke="#B10308" stroke-miterlimit="10"/>
<path d="M13.4713 300.341C-1.84823 296.402 -0.705172 295.629 14.8341 297.618C6.41396 282.71 8.34244 282.795 18.4575 294.768C21.852 276.479 22.1541 286.538 22.6853 294.547C36.2448 285.061 34.3683 289.586 27.3171 298.785C39.2828 300.453 41.0989 302.369 26.9419 304.646C34.0036 313.287 29.5839 311.379 23.3879 307.835C23.7782 317.944 23.463 324.275 18.827 307.967C5.25285 319.193 1.79176 320.592 15.3745 305.406C0.646812 310.135 -7.89289 312.037 13.4713 300.351L13.4713 300.341ZM22.0957 304.259C23.9534 303.534 25.0352 301.851 24.5323 300.502C24.0196 299.154 22.1095 298.649 20.2616 299.383C18.4137 300.118 17.3221 301.791 17.825 303.14C18.3377 304.489 20.2478 304.994 22.0957 304.259Z" fill="#FD900D" stroke="#FD900D" stroke-miterlimit="10"/>
<path d="M20.6435 313.512C9.75597 301.811 11.1262 301.787 23.2233 311.956C23.9193 294.754 25.4983 295.89 27.7735 311.524C40.2252 297.921 35.2085 306.594 31.4597 313.644C47.8825 313.041 43.926 315.831 33.1505 319.76C42.3832 327.705 42.919 330.314 29.7575 324.509C31.198 335.675 28.4657 331.642 25.0907 325.261C20.1329 334.024 16.5453 339.193 21.1688 322.881C3.82028 324.947 0.167346 324.236 19.5914 318.835C4.67289 314.774 -3.5478 311.726 20.624 313.523L20.6435 313.512ZM25.8829 321.539C27.8319 321.934 29.6306 321.109 29.9105 319.688C30.1904 318.267 28.8355 316.801 26.8866 316.406C24.9377 316.011 23.139 316.836 22.8591 318.257C22.5792 319.677 23.934 321.144 25.8829 321.539Z" fill="#35B84B" stroke="#35B84B" stroke-miterlimit="10"/>
<path d="M27.3623 339.645C27.4856 355.785 26.465 354.847 24.4339 338.983C12.4183 351.044 12.0312 349.125 20.8239 336.112C2.64102 337.34 12.0982 334.515 19.5497 331.985C7.15664 320.948 11.9157 321.675 22.4019 326.338C20.9779 314.092 22.3321 311.808 28.0466 325.243C34.4616 316.086 33.7606 320.938 31.9596 327.953C41.4459 325.028 47.5207 323.762 33.2249 332.429C47.271 343.032 49.472 346.107 31.6701 336.483C39.851 349.862 43.808 357.832 27.3525 339.635L27.3623 339.645ZM28.9117 330.131C27.7522 328.484 25.8906 327.829 24.7379 328.662C23.5853 329.505 23.5909 331.525 24.7505 333.172C25.9101 334.819 27.7716 335.474 28.9243 334.641C30.0769 333.798 30.0713 331.778 28.9117 330.131Z" fill="#009CF1" stroke="#009CF1" stroke-miterlimit="10"/>
<path d="M23.9428 352.424C16.9236 337.962 18.2461 338.349 26.8576 351.716C32.4896 335.501 33.6783 337.058 31.3335 352.684C47.1547 343.453 39.8618 350.212 34.2395 355.827C50.1084 360.215 45.5219 361.687 34.0908 362.177C40.619 372.56 40.3719 375.211 29.4806 365.689C27.6322 376.784 26.1803 372.118 24.8 365.002C17.527 371.871 12.6045 375.724 21.7462 361.54C4.56886 358.275 1.28489 356.493 21.4112 357.2C8.33054 348.825 1.36596 343.423 23.9428 352.434L23.9428 352.424ZM26.6309 361.677C28.3758 362.642 30.3426 362.397 31.0144 361.125C31.6862 359.853 30.8199 358.046 29.0749 357.07C27.3299 356.095 25.3632 356.35 24.6913 357.622C24.0195 358.894 24.8859 360.701 26.6309 361.677Z" fill="#0144D2" stroke="#0144D2" stroke-miterlimit="10"/>
<path d="M32.2156 381.252C47.2832 386.113 46.1008 386.816 30.696 383.886C38.2365 399.276 36.3175 399.071 26.9153 386.516C22.463 404.568 22.7483 394.507 22.6868 386.487C8.59643 395.134 10.7375 390.729 18.3087 381.969C6.46827 379.58 4.75954 377.564 19.0266 376.137C12.4825 367.074 16.7757 369.253 22.7574 373.167C22.9543 363.046 23.6415 356.745 27.319 373.315C41.522 362.928 45.062 361.748 30.6155 376.076C45.5904 372.257 54.2294 370.864 32.2253 381.242L32.2156 381.252ZM23.8344 376.814C21.947 377.429 20.7574 379.042 21.1821 380.421C21.6068 381.8 23.4879 382.415 25.385 381.8C27.2724 381.185 28.4621 379.572 28.0374 378.193C27.6126 376.814 25.7316 376.199 23.8344 376.814Z" fill="#875C9F" stroke="#875C9F" stroke-miterlimit="10"/>
<path d="M22.8959 401.827C10.1195 411.32 10.2723 409.93 21.7233 399.01C5.12427 396.054 6.43186 394.61 21.9061 394.339C10.3356 379.95 18.0855 386.159 24.4413 390.883C26.0001 374.169 28.195 378.543 30.5955 389.967C39.5089 381.653 42.1119 381.446 34.7569 394.016C45.7783 394.017 41.5169 396.258 34.878 398.845C42.7355 405.015 47.2793 409.323 32.0595 402.503C31.8057 420.343 30.6314 423.957 27.922 403.564C22.0408 418.139 18.0106 426.07 22.8959 401.817L22.8959 401.827ZM31.3704 397.575C32.011 395.653 31.4379 393.724 30.1055 393.258C28.7632 392.791 27.1613 393.976 26.5206 395.897C25.8799 397.819 26.453 399.747 27.7855 400.214C29.1277 400.68 30.7297 399.496 31.3704 397.575Z" fill="#F9255B" stroke="#F9255B" stroke-miterlimit="10"/>
</g>
<g clip-path="url(#clip3_552_180)">
<path d="M22.4204 415.025C7.34181 410.215 7.91846 411.481 22.1972 418.076C7.40642 426.305 9.09669 427.253 23.8332 422.434C17.3882 439.852 22.7809 431.432 27.3253 424.879C34.0503 440.2 34.7502 435.344 33.4447 423.734C44.5013 428.682 47.022 428.024 36.1096 418.534C46.5478 414.927 41.8052 414.202 34.7067 413.924C40.207 405.503 43.1629 399.931 30.8811 411.382C25.0363 394.565 22.7929 391.531 26.6354 411.723C16.4891 399.838 10.181 393.654 22.4301 415.024L22.4204 415.025ZM31.7771 416.286C32.9826 417.897 33.0556 419.916 31.9362 420.795C30.8167 421.673 28.9233 421.077 27.7179 419.476C26.5124 417.874 26.4393 415.845 27.5588 414.967C28.6783 414.088 30.5716 414.684 31.7771 416.286Z" fill="#B10308" stroke="#B10308" stroke-miterlimit="10"/>
<path d="M32.9154 433.348C48.1954 429.255 47.0448 428.493 31.526 430.638C39.7989 415.646 37.8714 415.751 27.8746 427.825C24.3003 409.57 24.0973 419.632 23.6448 427.646C9.9927 418.296 11.9136 422.802 19.055 431.93C7.10631 433.718 5.30912 435.651 19.4879 437.787C12.5115 446.498 16.9123 444.546 23.0731 440.94C22.7822 451.053 23.1597 457.38 27.635 441.027C41.319 452.116 44.7937 453.481 31.0622 438.431C45.8357 443.013 54.3937 444.83 32.9155 433.358L32.9154 433.348ZM24.33 437.351C22.4652 436.645 21.3669 434.973 21.8566 433.619C22.356 432.265 24.261 431.741 26.1161 432.458C27.9711 433.174 29.0791 434.836 28.5895 436.189C28.0901 437.543 26.185 438.067 24.33 437.351Z" fill="#FD900D" stroke="#FD900D" stroke-miterlimit="10"/>
<path d="M25.8733 446.59C36.6451 434.78 35.2747 434.77 23.2783 445.059C22.4131 427.865 20.8453 429.016 18.7241 444.672C6.13908 431.195 11.2409 439.817 15.0589 446.829C-1.36898 446.39 2.61469 449.141 13.4284 452.962C4.27429 460.999 3.76417 463.613 16.868 457.676C15.5373 468.857 18.2298 464.797 21.542 458.382C26.5857 467.095 30.224 472.228 25.4402 455.963C42.8082 457.855 46.454 457.108 26.9777 451.902C41.8555 447.692 50.0458 444.562 25.8929 446.6L25.8733 446.59ZM20.7131 454.668C18.7682 455.082 16.9614 454.276 16.6675 452.858C16.3737 451.44 17.714 449.96 19.659 449.546C21.6039 449.131 23.4107 449.938 23.7045 451.356C23.9984 452.774 22.6581 454.254 20.7131 454.668Z" fill="#35B84B" stroke="#35B84B" stroke-miterlimit="10"/>
<path d="M19.4119 472.788C19.4475 488.928 20.4587 487.981 22.3337 472.097C34.4673 484.038 34.8355 482.115 25.9153 469.19C44.1093 470.236 34.6247 467.506 27.1487 465.051C39.4326 453.89 34.681 454.665 24.2411 459.432C25.5445 447.172 24.1679 444.902 18.5859 458.394C12.0811 449.302 12.8298 454.146 14.6998 461.143C5.18519 458.313 -0.901844 457.107 13.4786 465.632C-0.462436 476.375 -2.63317 479.471 15.0732 469.67C7.02434 483.13 3.14596 491.139 19.4216 472.778L19.4119 472.788ZM17.7689 463.29C18.9122 461.632 20.7672 460.958 21.9281 461.779C23.089 462.611 23.1032 464.631 21.9599 466.289C20.8166 467.948 18.9616 468.621 17.8007 467.8C16.6399 466.968 16.6256 464.949 17.7689 463.29Z" fill="#009CF1" stroke="#009CF1" stroke-miterlimit="10"/>
<path d="M22.957 485.532C29.8335 471.001 28.5149 471.401 20.0353 484.854C14.2441 468.696 13.0708 470.265 15.5692 485.867C-0.342048 476.794 7.01699 483.48 12.6943 489.038C-3.13068 493.585 1.4701 495.011 12.9055 495.387C6.47978 505.834 6.75296 508.482 17.55 498.852C19.5075 509.928 20.9134 505.248 22.2236 498.118C29.5639 504.914 34.524 508.718 25.2432 494.626C42.3876 491.189 45.6538 489.375 25.5355 490.283C38.5331 481.777 45.4442 476.306 22.9571 485.542L22.957 485.532ZM20.3601 494.812C18.6247 495.794 16.6557 495.569 15.9714 494.304C15.287 493.039 16.1356 491.223 17.8709 490.23C19.6062 489.237 21.5753 489.473 22.2596 490.738C22.944 492.003 22.0954 493.819 20.3601 494.812Z" fill="#0144D2" stroke="#0144D2" stroke-miterlimit="10"/>
<path d="M14.9585 514.442C-0.0605744 519.453 1.12869 520.144 16.5039 517.061C9.11522 532.526 11.0321 532.301 20.3103 519.653C24.94 537.659 24.5558 527.602 24.5383 519.582C38.7131 528.087 36.5287 523.703 28.8717 515.02C40.6881 512.512 42.3769 510.48 28.0965 509.195C34.5511 500.067 30.2795 502.289 24.3367 506.263C24.0401 496.145 23.2909 489.85 19.7767 506.456C5.4722 496.211 1.92076 495.068 16.5075 509.25C1.49575 505.581 -7.15653 504.275 14.9486 514.432L14.9585 514.442ZM23.2955 509.92C25.1889 510.517 26.3944 512.118 25.9832 513.501C25.5721 514.884 23.6972 515.518 21.7941 514.922C19.9007 514.326 18.6953 512.724 19.1064 511.341C19.5175 509.958 21.3924 509.324 23.2955 509.92Z" fill="#875C9F" stroke="#875C9F" stroke-miterlimit="10"/>
<path d="M24.4802 534.922C37.3494 544.288 37.183 542.899 25.6251 532.094C42.1942 528.972 40.8725 527.541 25.3964 527.425C36.8246 512.921 29.1362 519.208 22.8272 523.994C21.1041 507.296 18.9523 511.692 16.6643 523.14C7.66958 514.916 5.06461 514.735 12.543 527.23C1.52212 527.341 5.80533 529.54 12.4694 532.061C4.67304 538.308 0.171783 542.662 15.3238 535.69C15.7531 553.527 16.9629 557.128 19.4714 536.709C25.4958 551.225 29.6038 559.115 24.4802 534.912L24.4802 534.922ZM15.9644 530.755C15.3048 528.84 15.8589 526.906 17.1867 526.426C18.5243 525.946 20.1379 527.114 20.7974 529.029C21.4569 530.944 20.9029 532.879 19.575 533.358C18.2374 533.838 16.6239 532.67 15.9644 530.755Z" fill="#F9255B" stroke="#F9255B" stroke-miterlimit="10"/>
</g>
<g clip-path="url(#clip4_552_180)">
<path d="M26.7098 547.911C41.7409 542.949 41.1766 544.221 26.9626 550.96C41.8325 559.039 40.1515 560.004 25.3689 555.334C31.9827 572.686 26.5085 564.321 21.9007 557.814C15.3247 573.202 14.5778 568.354 15.7705 556.731C4.76253 561.791 2.23552 561.158 13.0553 551.558C2.58258 548.057 7.31796 547.284 14.4134 546.935C8.83162 538.57 5.82179 533.028 18.2141 544.354C23.8955 527.478 26.1093 524.422 22.4629 544.652C32.4933 532.665 38.7412 526.417 26.7 547.911L26.7098 547.911ZM17.3658 549.267C16.1759 550.89 16.1225 552.91 17.2505 553.777C18.3784 554.644 20.2659 554.029 21.4557 552.415C22.6456 550.802 22.699 548.772 21.571 547.905C20.4431 547.038 18.5556 547.653 17.3658 549.267Z" fill="#B10308" stroke="#B10308" stroke-miterlimit="10"/>
<path d="M16.4028 566.339C1.08381 562.402 2.22697 561.628 17.7659 563.616C9.34785 548.709 11.2763 548.793 21.3897 560.766C24.7867 542.476 25.0874 552.535 25.6176 560.544C39.1783 551.056 37.3012 555.582 30.2488 564.781C42.2142 566.448 44.0301 568.363 29.8728 570.642C36.9333 579.283 32.5138 577.375 26.3184 573.832C26.7073 583.941 26.3913 590.272 21.7575 573.965C8.18178 585.192 4.7205 586.592 18.3053 571.404C3.57698 576.135 -4.96297 578.038 16.4028 566.349L16.4028 566.339ZM25.0267 570.255C26.8845 569.53 27.9665 567.847 27.4637 566.499C26.9512 565.15 25.0412 564.645 23.1932 565.381C21.3452 566.116 20.2533 567.789 20.7561 569.137C21.2687 570.486 23.1787 570.991 25.0267 570.255Z" fill="#FD900D" stroke="#FD900D" stroke-miterlimit="10"/>
<path d="M23.5732 579.51C12.6872 567.81 14.0575 567.786 26.1531 577.953C26.8515 560.751 28.4304 561.886 30.7034 577.52C43.157 563.916 38.1391 572.589 34.3894 579.64C50.8121 579.034 46.8554 581.825 36.0793 585.755C45.3109 593.7 45.8464 596.308 32.6856 590.505C34.1247 601.671 31.3929 597.638 28.0187 591.257C23.0598 600.021 19.4715 605.191 24.0972 588.878C6.74839 590.946 3.09556 590.236 22.5204 584.833C7.60239 580.774 -0.617878 577.727 23.5536 579.52L23.5732 579.51ZM28.8115 587.535C30.7603 587.93 32.5592 587.105 32.8393 585.684C33.1194 584.263 31.7647 582.797 29.8158 582.402C27.867 582.008 26.0682 582.833 25.7881 584.254C25.508 585.674 26.8626 587.141 28.8115 587.535Z" fill="#35B84B" stroke="#35B84B" stroke-miterlimit="10"/>
<path d="M30.2885 605.641C30.4095 621.781 29.389 620.844 27.3601 604.979C15.3429 617.042 14.9561 615.123 23.7505 602.109C5.56746 603.339 15.0251 600.513 22.4769 597.983C10.0853 586.947 14.8442 587.674 25.3298 592.335C23.9075 580.089 25.262 577.805 30.9746 591.239C37.3909 582.081 36.6893 586.933 34.8873 593.948C44.3739 591.022 50.449 589.755 36.152 598.425C50.1966 609.026 52.3972 612.1 34.5966 602.479C42.7757 615.857 46.7316 623.826 30.2786 605.631L30.2885 605.641ZM31.8391 596.127C30.6798 594.48 28.8183 593.825 27.6655 594.658C26.5128 595.501 26.5181 597.521 27.6775 599.168C28.8368 600.815 30.6983 601.47 31.8511 600.637C33.0038 599.794 32.9985 597.774 31.8391 596.127Z" fill="#009CF1" stroke="#009CF1" stroke-miterlimit="10"/>
<path d="M26.8671 618.421C19.8499 603.96 21.1724 604.346 29.7821 617.713C35.4162 601.497 36.6047 603.054 34.2578 618.68C50.0803 609.446 42.7865 616.207 37.1634 621.822C53.0317 626.208 48.445 627.681 37.0138 628.173C43.5406 638.555 43.2931 641.205 32.4031 631.685C30.5532 642.78 29.102 638.114 27.7226 630.998C20.4487 637.868 15.5257 641.722 24.6694 627.537C7.49244 624.274 4.20872 622.493 24.3349 623.198C11.2554 614.824 4.29157 609.423 26.8671 618.431L26.8671 618.421ZM29.554 627.673C31.2988 628.638 33.2656 628.393 33.9376 627.121C34.6096 625.849 33.7434 624.042 31.9986 623.066C30.2537 622.091 28.287 622.347 27.615 623.619C26.943 624.89 27.8091 626.698 29.554 627.673Z" fill="#0144D2" stroke="#0144D2" stroke-miterlimit="10"/>
<path d="M35.136 647.248C50.2029 652.106 49.0204 652.81 33.616 649.882C41.1545 665.271 39.2355 665.067 29.835 652.513C25.3803 670.565 25.6669 660.504 25.6065 652.484C11.515 661.133 13.6567 656.727 21.2291 647.966C9.38895 645.579 7.68049 643.564 21.9477 642.134C15.4049 633.072 19.6978 635.251 25.6789 639.164C25.8772 629.044 26.5653 622.742 30.2405 639.312C44.4449 628.922 47.9851 627.742 33.5366 642.072C48.5121 638.251 57.1513 636.857 35.1458 647.238L35.136 647.248ZM26.7555 642.811C24.868 643.426 23.6781 645.04 24.1027 646.419C24.5272 647.797 26.4081 648.412 28.3054 647.797C30.1929 647.182 31.3827 645.568 30.9582 644.19C30.5337 642.811 28.6527 642.196 26.7555 642.811Z" fill="#875C9F" stroke="#875C9F" stroke-miterlimit="10"/>
<path d="M25.8135 667.824C13.0359 677.319 13.1888 675.929 24.6413 665.007C8.04267 662.053 9.35045 660.609 24.8247 660.337C13.2562 645.948 21.0052 652.157 27.3604 656.88C28.9214 640.165 31.1157 644.539 33.5147 655.963C42.4292 647.648 45.0323 647.441 37.6756 660.011C48.6969 660.011 44.4353 662.252 37.796 664.841C45.6526 671.009 50.1959 675.317 34.9769 668.499C34.7207 686.339 33.546 689.953 30.8394 669.56C24.9562 684.136 20.9249 692.067 25.8135 667.814L25.8135 667.824ZM34.2885 663.57C34.9294 661.649 34.3566 659.72 33.0242 659.254C31.682 658.788 30.0799 659.972 29.439 661.894C28.7981 663.816 29.3709 665.744 30.7033 666.21C32.0455 666.677 33.6476 665.492 34.2885 663.57Z" fill="#F9255B" stroke="#F9255B" stroke-miterlimit="10"/>
</g>
<defs>
<clipPath id="clip0_552_180">
<rect width="153.89" height="45.72" fill="white" transform="matrix(0.00264745 0.999997 0.999996 -0.00276335 4.89404 0.126343)"/>
</clipPath>
<clipPath id="clip1_552_180">
<rect width="153.89" height="45.72" fill="white" transform="matrix(0.00705687 0.999975 0.999973 -0.00736579 5.19525 133.337)"/>
</clipPath>
<clipPath id="clip2_552_180">
<rect width="153.89" height="45.72" fill="white" transform="matrix(0.00278365 0.999996 0.999997 -0.00262814 0 264.126)"/>
</clipPath>
<clipPath id="clip3_552_180">
<rect width="153.89" height="45.72" fill="white" transform="matrix(0.00705687 0.999975 0.999973 -0.00736579 0.301208 397.337)"/>
</clipPath>
<clipPath id="clip4_552_180">
<rect width="153.89" height="45.72" fill="white" transform="matrix(0.00264745 0.999997 0.999996 -0.00276335 2.9364 530.126)"/>
</clipPath>
</defs>
</svg>
