<svg width="63" height="76" viewBox="0 0 63 76" fill="none" xmlns="http://www.w3.org/2000/svg">
<g clip-path="url(#clip0_552_14)">
<path d="M13.4536 20.7048C-1.98224 11.2392 -1.60311 12.9375 12.5979 24.4012C-5.14524 31.0072 -3.49874 32.5681 13.497 30.1455C3.00057 50.0009 10.5506 40.9349 16.8008 33.9668C21.047 54.3591 22.7801 48.5649 23.6792 34.0042C34.7064 42.6956 37.5877 42.4834 27.6221 28.2474C39.7 26.2868 34.6847 24.2763 27.0264 22.2533C34.6955 13.2247 39.0284 7.08079 23.3759 18.2323C20.3971 -3.78348 18.5664 -8.04178 18.6856 17.6579C10.0415 0.66213 4.41958 -8.41641 13.4536 20.7048ZM23.3867 24.4636C24.3833 26.7239 24.0475 29.2214 22.6502 30.0331C21.2528 30.8448 19.3138 29.671 18.3281 27.4107C17.3424 25.1505 17.6673 22.6529 19.0647 21.8412C20.4621 21.0295 22.401 22.2034 23.3867 24.4636Z" fill="#016F19"/>
<path d="M39.9816 36.5389C31.6516 54.2589 33.1248 53.8468 43.1771 37.5629C48.7665 58.0677 50.1422 56.182 48.1599 36.5639C65.2964 48.8268 57.4972 40.0355 51.507 32.7801C69.2285 28.0473 64.2132 25.9993 51.5937 24.8504C59.2196 12.2004 59.0571 8.87871 46.6326 20.255C45.0186 6.31874 43.2421 12.0756 41.4331 20.9043C33.6556 11.9881 28.3695 6.94312 37.9235 25.0752C18.8047 28.347 15.1001 30.42 37.3819 30.4824C22.5851 40.3227 14.6668 46.7413 39.9924 36.5514L39.9816 36.5389ZM43.3179 25.1252C45.2894 24.0013 47.445 24.4009 48.1382 26.0118C48.8315 27.6227 47.8024 29.8455 45.831 30.9819C43.8595 32.1183 41.7039 31.7062 41.0107 30.0953C40.3174 28.4844 41.3465 26.2616 43.3179 25.1252Z" fill="#FD900D"/>
<path d="M28.467 61.4019C27.8496 81.5445 29.0086 80.4081 31.7275 60.6776C44.6611 76.1623 45.1486 73.7647 35.8112 57.2185C55.8941 59.3914 45.5169 55.5327 37.3386 52.1235C51.3771 38.7867 46.091 39.5235 34.3489 44.9806C36.2878 29.7331 34.858 26.8485 28.1312 43.4196C21.3069 31.7686 21.9352 37.8376 23.7225 46.6664C13.3236 42.6829 6.62931 40.8846 22.1843 52.211C6.32601 64.9609 3.81294 68.7197 23.7875 57.3184C14.3418 73.7272 9.72731 83.53 28.467 61.4144V61.4019ZM27.0371 49.4637C28.3695 47.4407 30.4493 46.6914 31.695 47.7778C32.9407 48.8643 32.8757 51.3868 31.5433 53.4098C30.211 55.4328 28.1312 56.182 26.8855 55.0956C25.6398 54.0092 25.7048 51.4867 27.0371 49.4637Z" fill="#B77DD7"/>
</g>
<defs>
<clipPath id="clip0_552_14">
<rect width="63" height="76" fill="white"/>
</clipPath>
</defs>
</svg>
