<svg width="98" height="121" viewBox="0 0 98 121" fill="none" xmlns="http://www.w3.org/2000/svg">
<g clip-path="url(#clip0_552_13)">
<path d="M82.2487 63.4491C80.8596 49.4833 72.0345 42.1357 63.6214 37.1363C63.0749 36.8121 62.5889 36.3753 62.2778 35.8197C60.997 33.5276 61.8599 30.4818 63.626 28.848C68.0787 25.7309 67.1446 23.9479 65.2564 21.6806C65.2275 21.6482 65.209 21.5819 65.2092 21.5386L65.5908 15.3219C65.6018 15.158 65.3952 15.0791 65.2919 15.211L61.9424 19.5119C61.8973 19.5687 61.8237 19.603 61.7484 19.5979C57.1659 19.3025 55.2413 21.0191 56.1336 24.8679C56.1525 24.944 56.0778 25.0019 56.073 25.077C55.8592 27.673 54.3013 29.6615 51.2936 30.879C50.3203 31.2739 49.2449 31.3476 48.217 31.1339C32.9906 27.9867 21.8719 31.7292 13.6927 40.41C13.5905 40.5182 13.6551 40.697 13.8042 40.7209C23.9187 42.1705 31.4234 47.5603 39.1104 48.8151C34.0363 53.9289 29.7081 59.848 25.3858 65.7649C25.2699 65.9248 25.3025 66.1422 25.447 66.1979C35.3365 69.9682 44.9245 72.5502 54.1311 73.628C54.2601 73.6429 54.3973 73.5215 54.4343 73.3645C55.9284 67.0137 57.1767 61.0779 57.6617 56.4232C60.4156 57.6438 69.5573 59.2617 81.9348 63.6933C82.0932 63.7504 82.2636 63.6199 82.2469 63.4531L82.2487 63.4491Z" fill="#875C9F"/>
</g>
<g clip-path="url(#clip1_552_13)">
<path d="M76.5501 65.6642C65.082 58.8975 54.5499 61.5331 46.0451 65.1697C45.493 65.4062 44.8884 65.5333 44.2899 65.4599C41.8227 65.1553 39.9696 62.7871 39.6998 60.5194C39.7874 55.3636 37.9026 55.0789 35.1167 55.253C35.0758 55.257 35.0148 55.234 34.9817 55.2095L30.4327 51.4321C30.3133 51.3317 30.138 51.4457 30.1816 51.5986L31.6139 56.5737C31.6324 56.6401 31.6177 56.7157 31.572 56.7705C28.7988 60.1123 29.0439 62.5479 32.4874 64.0228C32.5562 64.051 32.5591 64.1406 32.6139 64.1864C34.4833 65.8055 35.1403 68.1128 34.4011 71.0975C34.1626 72.0639 33.6213 72.9283 32.8864 73.5953C22.0134 83.4854 18.7 94.0942 20.8024 105.222C20.8285 105.36 21.0013 105.411 21.1025 105.311C27.8342 98.3814 36.1332 95.659 41.3665 90.4786C42.4629 97.2295 44.5906 103.861 46.7199 110.487C46.7779 110.665 46.9626 110.762 47.0855 110.683C55.4695 105.227 62.776 99.3355 68.7183 92.8928C68.8014 92.8024 68.7847 92.6294 68.6851 92.513C64.6515 87.8089 60.7993 83.5254 57.504 80.5446C59.9694 79.121 66.2893 73.0308 76.5626 66.0414C76.6944 65.9522 76.6892 65.7486 76.5522 65.6678L76.5501 65.6642Z" fill="#4E78C2"/>
</g>
<defs>
<clipPath id="clip0_552_13">
<rect width="72" height="63" fill="white" transform="translate(31.9482) rotate(24.3227)"/>
</clipPath>
<clipPath id="clip1_552_13">
<rect width="68.0468" height="59.8484" fill="white" transform="translate(0 68.5927) rotate(-29.5821)"/>
</clipPath>
</defs>
</svg>
